/* XPM */
static char *_7035e3fd6604e4af7a487b41b44b585EjjNoLZ8WUzyu5Ei[] = {
/* columns rows colors chars-per-pixel */
"64 64 235 2 ",
"   c #7C5433",
".  c #7E4A22",
"X  c #79733F",
"o  c #795A4D",
"O  c #787157",
"+  c #776C64",
"@  c #7C776E",
"#  c #8D3A02",
"$  c #8E3601",
"%  c #973901",
"&  c #A43A00",
"*  c #AB3D00",
"=  c #8A4408",
"-  c #9C4201",
";  c #9B4800",
":  c #884519",
">  c #A84100",
",  c #A94B00",
"<  c #AE5900",
"1  c #B35A01",
"2  c #B55601",
"3  c #B54B01",
"4  c #BD6901",
"5  c #BE7600",
"6  c #B27C1A",
"7  c #854927",
"8  c #864C36",
"9  c #8E662C",
"0  c #CA4B00",
"q  c #CB4905",
"w  c #D14E02",
"e  c #CA5905",
"r  c #D25705",
"t  c #CF5013",
"y  c #CE6B01",
"u  c #D36C01",
"i  c #D86707",
"p  c #CC7401",
"a  c #C57800",
"s  c #CE7A01",
"d  c #C37806",
"f  c #D47401",
"g  c #DA7501",
"h  c #D57C01",
"j  c #DA7C01",
"k  c #DE790C",
"l  c #D76915",
"z  c #E17903",
"x  c #E47615",
"c  c #805B4B",
"v  c #8A7C4B",
"b  c #5FBB51",
"n  c #63BC4E",
"m  c #6CBC4F",
"M  c #64BC51",
"N  c #6CBD51",
"B  c #67BB58",
"V  c #70BD51",
"C  c #7FA85C",
"Z  c #7D9C68",
"A  c #7A9873",
"S  c #7A8670",
"D  c #7BA46A",
"F  c #78BC67",
"G  c #7DAC71",
"H  c #64C14F",
"J  c #6AC44E",
"K  c #6BCA4F",
"L  c #66C352",
"P  c #6AC652",
"I  c #67C952",
"U  c #6BCA53",
"Y  c #6EC25B",
"T  c #6DCB58",
"R  c #71C453",
"E  c #71CC54",
"W  c #73CD59",
"Q  c #74C45D",
"!  c #73D055",
"~  c #74C462",
"^  c #79C464",
"/  c #7ACB64",
"(  c #7AC869",
")  c #7EC171",
"_  c #B88325",
"`  c #CD8502",
"'  c #C88901",
"]  c #D48201",
"[  c #DB8400",
"{  c #D58C01",
"}  c #DC8B01",
"|  c #CC9301",
" . c #DB9301",
".. c #D39C00",
"X. c #DC9B00",
"o. c #D49401",
"O. c #C78C19",
"+. c #D79910",
"@. c #E58700",
"#. c #E28C01",
"$. c #EA8801",
"%. c #E49301",
"&. c #E99400",
"*. c #E59C01",
"=. c #EA9C02",
"-. c #F08711",
";. c #DCA301",
":. c #DCA902",
">. c #D4A902",
",. c #D8A90B",
"<. c #E4A401",
"1. c #ECA401",
"2. c #E3AB00",
"3. c #EBAB00",
"4. c #F2A501",
"5. c #F4AC00",
"6. c #FAAD02",
"7. c #F6A609",
"8. c #E4B401",
"9. c #ECB201",
"0. c #EDBA01",
"q. c #E2BD04",
"w. c #F3B401",
"e. c #FEB401",
"r. c #F4BB00",
"t. c #FDBB01",
"y. c #F8B60E",
"u. c #E7B518",
"i. c #F8AE18",
"p. c #D49D34",
"a. c #D18D2D",
"s. c #DAAD2D",
"d. c #E7B625",
"f. c #ECAC30",
"g. c #BDE139",
"h. c #DED007",
"j. c #EAC605",
"k. c #F4C301",
"l. c #FEC400",
"z. c #F3CB01",
"x. c #FDCC01",
"c. c #F5CD0B",
"v. c #E7DD01",
"b. c #FED401",
"n. c #FEDB00",
"m. c #F6D902",
"M. c #E9C618",
"N. c #FACA15",
"B. c #FDDB1B",
"V. c #FBD51A",
"C. c #EED516",
"Z. c #E6EC01",
"A. c #FEE201",
"S. c #FEED01",
"D. c #F4E900",
"F. c #FDF301",
"G. c #FEF801",
"H. c #F6F000",
"J. c #FAE81E",
"K. c #FCF21E",
"L. c #C9DD2E",
"P. c #EBC828",
"I. c #FACA25",
"U. c #EED724",
"Y. c #FCDE24",
"T. c #F8D728",
"R. c #EDCC36",
"E. c #F9CC37",
"W. c #F5D833",
"Q. c #D2E731",
"!. c #FDEC24",
"~. c #FDE32A",
"^. c #FCEB2C",
"/. c #F8E624",
"(. c #FEEB34",
"). c #FBE43A",
"_. c #FBE63C",
"`. c #FEFB3C",
"'. c #FBF238",
"]. c #EFEB32",
"[. c #8C8857",
"{. c #83B55E",
"}. c #86AB68",
"|. c #86B866",
" X c #84B776",
".X c #99AF67",
"XX c #BCBD6F",
"oX c #AD8F73",
"OX c #D9A84A",
"+X c #E9BB4C",
"@X c #E4B547",
"#X c #E9BE53",
"$X c #84CA5E",
"%X c #9ACD55",
"&X c #9BD65A",
"*X c #B4DB4B",
"=X c #A8D45D",
"-X c #BAD957",
";X c #A7CF5F",
":X c #B9E349",
">X c #AEE05D",
",X c #86C76B",
"<X c #94CF66",
"1X c #86D163",
"2X c #98D768",
"3X c #84C475",
"4X c #84C874",
"5X c #A9C76B",
"6X c #A8D966",
"7X c #C1DA46",
"8X c #D3DC5F",
"9X c #FAD244",
"0X c #FCD44A",
"qX c #F3D644",
"wX c #EDC85A",
"eX c #F7D257",
"rX c #F5CE57",
"tX c #CEE347",
"yX c #F5EC4B",
"uX c #F9E846",
"iX c #FDF749",
"pX c #F6EA57",
"aX c #CBCC6C",
"sX c #F2D56F",
"dX c #F6F872",
"fX c #CFB898",
"gX c #B1DB9C",
"hX c #B8E181",
"jX c #B8D6AE",
"kX c #FAFA98",
"lX c #F4EF89",
"zX c #FBFAB1",
"xX c #F0CCA8",
"cX c #FBFAEE",
"vX c #DDF0D0",
/* pixels */
"U E U U L L U T T T U U U U U U U U U U P T E P U U U U U U K U I U U U T E T U P P U U U U K E U U U K K U U K U I U U U U U U ",
"U U E U U U U P U U U I I U U U U U U U U U U P K U K U U U U U U U U U U U U U U P P U P U U U K U K E U I U U U U U U U U L U ",
"U T U U U L L U U U U I U U U U P P P E P P P K P U U P I U U U U I U K U U U U P U P U U P E U U E P U K I U K U U U P U U U U ",
"U U U U U P U I L U U U U U I U U P P P U T U U U U K U U U U U U ! U E E U E U U U P P U K K U U K U U ! U U U U I U U U U T U ",
"T U P U U U U L L U U U I U U I P P P T U U U U U U I I U U U U U K U E K E U U U P U K U U K U U U U U U K U U U U P T P T U L ",
"U U U T T U U P I U L P U L U L L P P P P U U P L U I U U U U U E U U U U U E U U K U U K U U U U U U K U U U U U K U U T L L L ",
"L T T T L L L L U U U I T U U U L L N P P P U U U U U U U U U U K U U U U U K U U K K U U U U U K U U U ! U U I U U U U U H H n ",
"n L P L M n b L U U I T L U L L m L L P P T P L U U U L K U U U U U U U U U U U U U I U K U U U U E U U I U ! K U U U L H n n M ",
"M M L M M M H L T T U U M M M M n H L U T L n H U U L H L b T T U P U U U U I U U U U ! P U I U U U U U U T P U T P L n M M M M ",
"M M M M L M n L T T T L n n n n M H P U U M n M B M L n M L I T L U U U T U E I U K K U U U K I U U U U U T E U P H n n M M M M ",
"M M M M M M n L T T U M n b b M M H L K M n b M b L n H M L W ( B K E E U U U U U U U I U U P U U U U U U U P U n n n M M n n M ",
"M M M M M M n L T T L n n M n M n n n n M M n n M b / <X=X*XL.Q.Q.:X:X>X2X1XU U U U U U K I I U U U U U U U U L n n n M M n M M ",
"M n M M n n M L T U n n M M b n n M b b n M n R <X-XZ.H.S.S.S.S.S.S.S.S.S.Z.:X2XE U T U U U U P U E T U U U U L n M M M M M M M ",
"M b M n M M M L T P H n n M M n M L b b M n %XQ.D.S.S.S.F.F.G.G.G.F.F.F.S.S.S.Z.Q.6XW U U U K U I U U U T T P L n M M M M L M M ",
"M n M M n M M P T P L n M M M M b b L 4X6X8XZ.S.S.F.F.S.n.z.0.9.9.0.j.n.F.G.S.S.F.F.L.1XU U T U K I U U U U L L H M M M n n M M ",
"M M n b M M M L T U M n b M M M I ) jXlXF.F.S.S.F.m.8.} u r w 0 0 r e u [ 9.n.F.F.S.F.Z.&XT U K U U U U U L b n M M M L n n M b ",
"M M n M M b n M P T L b M M n n ( vXdXH.S.H.G.A.<.u q t t r l x l k l t t q u 1.A.H.S.A.H.6XT T ! U U U L b n n n M M M M M M M ",
"M M M M M M M L L U L M M M M H gXkXH.S.F.F.z.p q r j %.7.e.e.w.t.e.6.7.#.z r 0 y k.F.F.S.H.>XU U I I H M M b b M L M M M L M M ",
"M b M M M M M U L L L M M n M M hXdXzXdXS.:.t t [ 7.y.r.r.w.w.e.e.w.w.r.t.t.4.z r q 2.F.F.S.H.6XP L H H b M M L M M M M M M M M ",
"M L n M M M B L L M M n b n n Q tXzXcXkX<.q i 7.i.e.w.9.w.w.5.w.5.w.w.5.5.w.w.w.i.i q *.S.S.A.v.$Xn n b M M n M M M M L M M M M ",
"M M M M M M L L L n b H M n m 7Xm.uXkXOXe x w.5.o.;.;.;.;.;.;.;.;.;.;.;.;.;.;.;.3.e.x q 1.A.n.n.*XR M M M M n M M M M M M n M M ",
"M M M M M M M N n n M b M n <Xv.n.n.M.l j i.t. .h.iXyXyXyXuXyXuXyXyXyX]./.J./.P.*.w.y.x r w.A.n.n.<XM M M M b M M M M M M M M n ",
"M M n M M M M M M M b M M L L.n.n.b.s a.6.9.w.%.M.iX'.'.'.'.).).).W.V.z.j.k.z.j.*.e.5.w.g u m.A.n.L.Y M M M M M M M n M n M M M ",
"M M M M M M M M n M n n M ,Xv.n.A.3.i f.4.7.5. .M.`.!.^.^.~.~.Y.B.V.c.k.t.r.r.j.*.5.4.4.4.i =.A.n.n.<XM M b n M M M M M M M M n ",
"N M M M n m b M M n b n M -Xm.n.b.f -.5.4.4.w. .M.iX!.^.^././.~.Y.B.z.l.t.w.l.q.%.5.4.4.5.$.g b.n.n.*XM M b M M M M B n n n M M ",
"M M M M B M M n B n M M P v.n.n.r.g 1.3.4.1.4. .j.`.K.].!.^.!.~.~.n.C.k.r.k.l.o.1.3.3.4.1.4.g 3.A.n.v.Q M M M n B M n M n M n M ",
"M M M M b n B M n n b n $Xm.n.n.*.@.4.=.=.=.=.' M.`.K.K.^.8... ...U.uXN.r.z...o.=.=.*.1.*.4.@.*.A.n.m.$XM b L M n n B n M n M M ",
"M M n M m n n n b b n m %Xm.A.m. .&.1. .R.R.R.d.>.C.z.z.q.` =.] ,.pXW.k.l.8.s.R.R.P.P.M.X.=.&.=.b.n.n.%XM L b M n M n n M n b M ",
"m M n n m n n n n M M B %Xb.A.x. .=.*.X.iXiXiXqXu.u.3.<.;.{ %.o.pXyXc.l.r.>.qXyX_.Y.z.z.X.=.=. .b.n.n.;XY B n M M M M M M n n M ",
"M m m B m n n n M n b F 6Xb.n.x.%.*.X.;.'.^.K.^.'.B.l.k.0.} { R.pXN.r.w.8.M.(.^.I.k.k.r.o.=.&.%.z.n.n.-XV n M M M M M M M M M n ",
"V N V m M m n B M n M B ;Xb.n.b.*.%.%...iX`.B.9.M.W.l.k.X.h 2.iXN.l.w.9.8.W.z.8.W.N.r.<. .=.&.*.x.A.b.8XF B M n M M n M M M B m ",
"V V V m m B n n n b n V 6Xx.A.b.<.%.%.{ ;.:.o.a d.).c.2.} { W.B.x.l.r.0.| ..] ..uXk.9. .%.&.%.1.b.A.b.aXV M n n B M n B M m m m ",
"V m m V m m n n M n L T 5Xt.b.n.3.} %.#.} @.[ +.yXT.N.*.j :.uXx.b.x.t.9.` } { 9XT.9.X.} %.%.#.3.n.b.e.aXQ M n M M M M B m N N V ",
"V V V V m m n n M L U / 5Xe.t.x.r.%.%.&.%.%.' qXuXV.8.{ j W./.b.x.l.t.:.} } 8.Y.l.w. .} &.%.} w.x.t.6.aXF n n n n M M N M V V m ",
"V m m m m B n n L T U / 5X6.e.t.r.%.#.#.&.[ <.uXB.V.<.s  .).b.x.x.l.k.{ j  .T.m.l.w.#.#.%.#.%.w.t.e.e.XXF B M n M M M M N V N V ",
"m m m m m m n N P E U T ,X3.e.t.t.<.#.#.@.] d./.b.y.%.p u.^.b.b.x.l.w.] j ;.T.b.x.<.[ @.} } *.t.t.e.3..XB n n M M M m M N m V V ",
"V m V m M m n P T E U P {.*.t.e.t.9.} #.[ ` T.n.x.t.#.p P.A.m.x.x.l.9.p [ u.J.b.x.*.h #.[ } 5.l.e.l.| }.P B n M M M N N N N V V ",
"V V V m n n J T E U T E |.6 l.t.t.l.*.[ j } T.n.b.l.h ] U.n.n.b.x.x.3.p [ P.B.b.l.o.h } ] *.l.e.e.l.6 {.m n M M m B N N N m V V ",
"V N m m n m P E E E P K Q 9 d.t.e.l.k.} j  .T.x.x.r.h ] W.n.b.x.x.l.1.f [ P.V.x.t.} h [ } r.t.e.t.u.9 F M M n n M m V V V m m m ",
"V m m m n L E K U K U E P [.a x.e.e.l.8.h j  .%.$.} p o./.A.n.b.b.x.1.p j }  .#.#.] h k 9.x.e.e.x.a v N L n n n M N V V m m m m ",
"V V N m n P E P K U ! E K |.- s.l.e.e.t.#.u g g g j p { z.l.l.r.t.e.%.f [ g g h g g h 3.x.t.t.l.d.; }.L Y N n n M N N m m m V V ",
"V m m m P E P T E U ! U E / 9 4 E.l.e.t.w. .h h j j g y p f a p p s p f j j j j j h 3.x.e.t.l.E.4 9 ( U U P n M M N m m m N V m ",
"V m N P R E U P K ! E ! E E }.# ` I.t.e.t.l.2.] f h g g f g g g g g g j g g f f [ r.x.t.e.k.sXOX= }.T T T T N n M B m m m R R m ",
"P V R P E U T U E K K U ! E / O % p.9Xt.e.t.l.r. .` g f p g g f g f f u p f [ <.l.l.t.e.t.lXcXfX[./ P E T U P M n m m m J R R m ",
"J P U U T U U U U ! K ! ! ! !  X. > p.0Xt.e.e.t.l.j.:.o.{ h p s p f h [  .9.x.x.t.e.e.l.eXxXcXjX4XE U U P U P M n M m m R R R N ",
"R T W E T P U U U U K U ! ! ! W G = , O.eXx.t.e.t.t.x.b.c.k.r.w.9.0.r.x.x.x.l.e.e.e.I.sXa.1 oX XT I T U U U Y U J m L R R R V J ",
"P P U E U U I K U U K K E ! W ! ^ Z : - 4 #X0Xl.t.e.e.t.t.l.l.l.x.l.l.t.t.e.e.t.l.0X#X5 - : Z / T U I U P U P U L P P R E R J L ",
"T E I U I I I U K K K R E E ! W U ^ Z 7 & 2 O.wX0Xl.l.t.e.e.e.e.e.e.e.t.t.t.x.9XwXO.2 & 7 Z ~ I U I U I U P T R P J P E P R P P ",
"T U U U I K U K U U K U E E E ! E E Q D   % * 1 ' +XeX0XI.N.x.l.l.N.I.E.9XeX@XO.1 * $   }.( U I U U U U U I U U U U T T U U P U ",
"U U U K I K U I U U U U K K E E ! U E Q G O 7 % - , 5 d p.OX@X+XwX#XwXs.' 4 3 & % : O  X~ U U U U U U U U I I U U U U U T P U T ",
"U U U U U U U U U U U U U U E ! K E J K ! ~ D o 7 $ % & & , < 1 2 1 < , & % # 7 o }.~ E I I ! I U T U U U U U U U U U U U U U U ",
"U U K U U U U U U U U U K E E E E R R U E U E 3XA + c 8 7 # # # $ % # : 8 o + A  XY U U U U U I U U U U U U U U U U U U I K U U ",
"U U U U U U U U U U U E U K E E E E K T ! ! I I T 3XF A @ v @ + + + v S D F 4XT E I U K E U U U U U U U U U U U U U K U U U U U ",
"U U I I K U U U K U U K U U K E K U E E U U T I P K P ( 4X3X) ) F 3X4X3X! I T U U U U U U K U K I U I U U U I K K U U U U K K U ",
"U U U U U U E U L P U U U U U E T U K K K ! U ! U P P P Y T T I T I T T U U U U U U T K U I U K I I U U U U U I I K K U U U U U ",
"U U U U U U U U P P U U K K U K P P P I ! U ! K T K U U T I I I I T I I U U U K U U U K U U K U ! I U U U U ! I U U I K U U K U ",
"U U U U U U E P E U U U U U E K U P K U U U ! I U U P P U U U U U U U U U U U U U U U U U I U U K U U K U U U U U U U U U U U U ",
"U T P U U U U U U E ! E U K U U H U P U E U U U U P U I U I U I U I U U I U U U U U U U I ! K U U U U U K U K U U U U U U U T U ",
"E U U P P P P U K E E E K U U U P P U U E U U U U U U U I U U U U U U U U U I U U U U I U U U U U U I U U U K U U U U U U L U U ",
"U P P P K P P P K U U U E U T K P P T T T T U U U U U U U U U U U U I U I U I U U U K U I U K U U K U K U U U U I I U U U K I L ",
"P U K L P U H K U U U ! ! E U U U P P U I U U U L U U U U U I L U P U U U U U L U U U U U U U U U I U U U U U U U T U U I L U I ",
"P P P P U P U U U U E ! E U U K L P P T U U U P U U U U U U U U U U I U K I I U U I U U ! K U U ! K U K K U K U U P U U K L U L ",
"P P P U U I L U U P U E U U P P U L U U U U U U U T U I I U U P I U U I U U U L I U K U I K U K U I U U U U U U U U P U U U L U ",
"L P P K L I U U L U U U U U P U L U U U I U U U U U L U P I U K I U P U I P I K U U U U U I U K U U U K U K U U U U U U L L U L "
};
