/* XPM */
static char *_7877b4d3aff4616e2fcfae5ba71fcb2WqqFqIB1FYecxMCq[] = {
/* columns rows colors chars-per-pixel */
"64 64 23 1 ",
"  c #5FB24C",
". c #61AF4C",
"X c #61B44E",
"o c #68B54F",
"O c #63BC4E",
"+ c #6CBC4F",
"@ c #63B550",
"# c #64BC51",
"$ c #6CBD51",
"% c #70BD51",
"& c #64C14F",
"* c #6AC44F",
"= c #6BC94F",
"- c #66C351",
"; c #6AC553",
": c #6BCA53",
"> c #6EC659",
", c #6DCB58",
"< c #71C453",
"1 c #71CC55",
"2 c #70C65B",
"3 c #71CB5A",
"4 c #72D056",
/* pixels */
":1::;;,,:::::-:::::;::::::::=:=:::::::::::-:::::=:=:::::::-:::::",
"::1:;;;,::,:::::::::;:;:;:=:::::::::::,:-::::::=::=::==:=:::::::",
":,::;;:-:::::::::;-,:;;:::::::::::::::4:::-::=::::::::::::::-:::",
":,::;::=-:::::-::-::,::::==:::::::::::::-::::::::=::::=::::-::::",
"::=::,:--::,:-:::::::,,::-::::::::4:::4:::-=:=::::4==:=::::-,:-:",
";:,,:::--::-:::----::-:::=:::::::::::::::=:::::=::::::4:::::::--",
"-:,,--&--:-::,:------,,-:::::::::::::=:::=:=:=:::::::=:::::,-&&&",
"O;;-###-,:::::------:,--:,---:::::::::=4::=:::::=::::4:=::,-&&&&",
"######&-:,,--&###&-,,-##:---O-,,:-::::=:::=::=:=::::::::-,&#O#O#",
"#######-,,,&&OOO&&----OO#--#O-,,==:::::=:=::::=::::::::::-OOO###",
"######O-,,:&O OO##---OO#####O-,-O-,::::::==::--:::::,:,-&OOO#O##",
"######&-,,:&##O##O#&&OO#####O#&#O=4::=:-=:::=:::::,::::-&OOO#&##",
"#####O#-,-&O##OO####O######-O&#O&-,:::=:::::=:::::::-,--########",
"#######-,-&####O##O O#######--#O-::::::::==:=:=:::::,,,-&#######",
"#OOO##--,--#####&#OO##&##-&#--#O&-,4==::::=:::==::::,,-#O###OO##",
"#OOO##--,,&OO####O###O&-#---,-OO--,4::::=::=::::::::--&O###O#&##",
"##O##O##;,-########-##&--::::-OO-:4:::::=:::::::::::&#########-#",
"#######-;;#########&##--::,,:-OO-:4::=:::=:::::::::-#O##########",
"#######-;-######## -#-:::,:::-#&-,:4=::::::=:4,:-&&&OO#O########",
"######---#####O###--;,::,::::-#&&::::::::===::,-&&&&###O########",
"######--####- ###--::,:,::::-###&:,,,-:::=:=,,-&&&##############",
"######-##O######-,,:::::::::--###:,,::,:::,::&##O&#&O######### #",
"########OO######::::=::::,,-#####-:,,:::,,,-##O#O###############",
"########OO##-##O--:=:::,,,--######:,::::::-&####OO####O### #####",
"####$###@OO##-O#--::::>;;>;@##O###--:-:,:-O -################ ##",
"#############OOO-;,>>;OoO;;#######----:4;- O##OO@###############",
"#@@####@######@#;,>;#XX X####-#&### &:,:,--&#&###O##############",
"#####o##O######-33;@X XXX@###&#  -- -,:4:::,:---#O############ #",
"###@####OO#O#O#,32@ @@ X@XXoO#####&&-,4::::::,,-################",
"-#$o$###@##OOO-32#  @@@ .XX######## -::::::::,--################",
">$$$o$#####OO->,$ @@@@@X@X@#-#### ##-:::-:::::,-################",
"##$$$$#@###--,3;@  @  @@XXX# -##&&#-,:=::::::,--##############-#",
"%++%++OOO#-::3:*@ @@X @@@X@@O#O###-,,:-,:::::::-&&&&###O#####-##",
"+%%%++OO#;;,3:3>@ .@ @$$o@##O@O###--,-,:::::::::-&&&#### ###-->-",
"%++%$oOO;;::::1>#    @$>$;>$OO#@##O#::::::::::::&&&&#O##&###$%##",
"++%+;Oo;:,1:::11;X  X#>;#>2#Oo-O#O &::-:::::4:::#&&&& ######$%$$",
"%+%++O+;11::<::1;#. #;>;$>>#OO#OOO---,:::::::::-&####&##@$$$$$%$",
"+%%+OO*:1:::::=1># @$<$+$>>oX@#oO&-,,::::::::::-##########$$%$$%",
"+%++O&:14::<:::1:$O@%<;$;$#@ X#@O#::,:::::::::,:#OOO###&#$$%%o$%",
"%%++o;:1==::===1:&O;;;$>$$X. @#O#-:,,,,:::::::::&&&&&&# $$%$%%%o",
"%%$o&:1>:44====1:-;>*;<$#XX.o$---,,--::::=::-::::--->;O##$$+++%%",
"%+++;1:;=:444=:1:::1<;;$XX.o$$->-,,:::::::=::::-:;;:::Oo#$$$%+%+",
"%++*<1:;=1111=1=:<11**$OX.@%%%$,,::::::::::=::::;:,3,>*O#$$*+<<+",
"+<<=:::::1=1111=;1::<;;;@@$%%$#,::::::::::::::::;,:::;;OX$O++<<+",
";:,:,:::::=11411<:=:=*;;@#$%-&-,:,:::::=:::::::::::::,;OoO+*<1<+",
";:,4:::::::114114<::::;*--$;&&-,:::::::=::::::::::::::>-&+;<<<+*",
">;::,-::=:=111411=:::=;;-:--&&---:::::::::::::::::::-::;;;*<1<**",
"::::::=:=:<1111111::4::<,,---#---,,::::::::::::::::::;>:;*;1<;*;",
"1::::=-=::=::::44:::::4:=::::--&=::=:::::=::::::::::::::::-,::::",
"::::::::::::=:444:==:::=::==:-::::::::::::::::::::::-:::::::,:::",
":==::::::::::=44::::=:::::=&-,,::=:::::::::::::=::::::::::::::-,",
"::::::::::::==144:::4:::::-=-:::::::::::==:::::::,,-::::::::::::",
"::::=::::::::=41:::4,:::=:-::,::===:::==:=:::=:=::-:::=:::==::::",
":,:=:::::::=::1=:::::::::&:-::::===:=:::=:=::::::::::::::::::::=",
"::::=::==;:::::=:::::,,:::-::,::::::::::::::=:=:::::::::====::::",
",:=:::::;:=1==:::::::,::::::::::::=:::=::::::==:::::::::::=::-:=",
"::::1::::::1=:::-:-::,,:::-::::::::=::::::::::=:::=::=:=::::::::",
"::::>::::14=:::=-:::::::::::::-::::::::::::::::::==:::::::::::-:",
":,:*;;::=:14::::-::::::::::--::::::=::::::::::::::::::::::::::::",
":;;:-=-:=:1:11:=-:,::,::::::::-:::==:&::::::::=:=::::::=::::--:-",
":;;*::-==::441:*:-,:::::-:::::::::-::::&::::::::=:::::::::::-:--",
";;=:-::-:::44::::-:::::::::::--:-:::&::::=::::==:::::::::::-::::",
":--=-:=;:::1:::;:--:::::::::::-::::-::&:=::::::=::::::::::::-:--",
"--::=-:::;:::=;:--::::::::---:::-:::-:&:::::::=:=:=::::::::::-::"
};
