/* XPM */
static char *_1ccd6e2102c4c48c9c2823bb74abd13pPcAmaIOaCi5cLDD[] = {
/* columns rows colors chars-per-pixel */
"64 64 240 2 ",
"   c #010101",
".  c #0C0B00",
"X  c #060E03",
"o  c #1A1705",
"O  c #150D02",
"+  c #211C04",
"@  c #201C10",
"#  c #2C2401",
"$  c #2A250A",
"%  c #362A02",
"&  c #362902",
"*  c #3A3204",
"=  c #282918",
"-  c #322C18",
";  c #353516",
":  c #2C3015",
">  c #1B2325",
",  c #232623",
"<  c #293126",
"1  c #333626",
"2  c #393C31",
"3  c #152117",
"4  c #4B3B01",
"5  c #433400",
"6  c #523E02",
"7  c #433D24",
"8  c #3F420D",
"9  c #3A4A39",
"0  c #3B4B2E",
"q  c #544201",
"w  c #5D4B00",
"e  c #5B4502",
"r  c #575205",
"t  c #5A5216",
"y  c #644A01",
"u  c #645001",
"i  c #6B5602",
"p  c #795901",
"a  c #714A00",
"s  c #7D6800",
"d  c #7C6300",
"f  c #7C7200",
"g  c #6F6D13",
"h  c #585327",
"j  c #4D4E2C",
"k  c #655931",
"l  c #556B27",
"z  c #536A34",
"x  c #696738",
"c  c #726D2E",
"v  c #374C42",
"b  c #3F5946",
"n  c #445943",
"m  c #54585B",
"M  c #496349",
"N  c #587853",
"B  c #536C50",
"V  c #6B7B45",
"C  c #787677",
"Z  c #885901",
"A  c #975A00",
"S  c #8B6B00",
"D  c #846700",
"F  c #966B00",
"G  c #847001",
"H  c #8C7301",
"J  c #887A00",
"K  c #9B7200",
"L  c #977800",
"P  c #867919",
"I  c #B86C00",
"U  c #A37E00",
"Y  c #A87C01",
"T  c #AD6E00",
"R  c #87773B",
"E  c #8B7A22",
"W  c #C57202",
"Q  c #D17F02",
"!  c #867C50",
"~  c #519C3D",
"^  c #548546",
"/  c #5B8E53",
"(  c #628957",
")  c #778D54",
"_  c #67985C",
"`  c #779359",
"'  c #6F874A",
"]  c #5BAB49",
"[  c #5FB34D",
"{  c #5FBC51",
"}  c #63BC4E",
"|  c #6CBC4F",
" . c #66A858",
".. c #64BC51",
"X. c #6CBD51",
"o. c #65B655",
"O. c #70BD51",
"+. c #71A050",
"@. c #699665",
"#. c #709167",
"$. c #6CA665",
"%. c #78A86A",
"&. c #7ABB6D",
"*. c #76B869",
"=. c #7CB872",
"-. c #6FAE71",
";. c #64C14E",
":. c #69C44F",
">. c #6BCA4F",
",. c #66C351",
"<. c #6AC653",
"1. c #67C953",
"2. c #6BCA53",
"3. c #6ECB59",
"4. c #6BC558",
"5. c #71C453",
"6. c #71CC55",
"7. c #72CB5B",
"8. c #72C65B",
"9. c #73D056",
"0. c #70C84E",
"q. c #74C264",
"w. c #75CA61",
"e. c #7ACB64",
"r. c #7BC26B",
"t. c #7BC967",
"y. c #7EC670",
"u. c #9E8300",
"i. c #998901",
"p. c #938A1E",
"a. c #A38401",
"s. c #A48A01",
"d. c #AB8C01",
"f. c #A88603",
"g. c #B28D01",
"h. c #B68400",
"j. c #AB9301",
"k. c #B49201",
"l. c #BA9401",
"z. c #BC9A00",
"x. c #B29C03",
"c. c #A99318",
"v. c #B7A40F",
"b. c #89823A",
"n. c #9A8737",
"m. c #948E2A",
"M. c #AC972B",
"N. c #C08D01",
"B. c #C39401",
"V. c #C49B00",
"C. c #CA9C01",
"Z. c #D49E01",
"A. c #D88302",
"S. c #F79900",
"D. c #EA8B01",
"F. c #C3A301",
"G. c #CAA201",
"H. c #CDAA02",
"J. c #D3A301",
"K. c #D4AC00",
"L. c #DBAC00",
"P. c #DAA501",
"I. c #CEB101",
"U. c #DCB101",
"Y. c #DFB801",
"T. c #E4AD01",
"R. c #E7AA02",
"E. c #FFA400",
"W. c #FFAB01",
"Q. c #E4B401",
"!. c #EBB401",
"~. c #ECBB00",
"^. c #E4BB00",
"/. c #F3B400",
"(. c #FFB401",
"). c #F3BC00",
"_. c #FEBC01",
"`. c #E8BC2C",
"'. c #C3A631",
"]. c #E9C400",
"[. c #F5C201",
"{. c #FDC401",
"}. c #FECD00",
"|. c #FECC01",
" X c #F5CC00",
".X c #FFD200",
"XX c #FED301",
"oX c #FFDB00",
"OX c #FEE300",
"+X c #FFEC01",
"@X c #FFE824",
"#X c #FFE535",
"$X c #FFF139",
"%X c #EBD13E",
"&X c #9C9945",
"*X c #90904A",
"=X c #AA9952",
"-X c #8AA45A",
";X c #97A251",
":X c #BBA54B",
">X c #839869",
",X c #88A667",
"<X c #85B974",
"1X c #8AB36E",
"2X c #B1A77A",
"3X c #CCB459",
"4X c #D1B54F",
"5X c #D7BF65",
"6X c #82C96B",
"7X c #86C474",
"8X c #81D063",
"9X c #E6C64B",
"0X c #E6C759",
"qX c #F4D450",
"wX c #FFE747",
"eX c #FFEA58",
"rX c #FADC6F",
"tX c #FFEA76",
"yX c #FFE966",
"uX c #797D88",
"iX c #76B682",
"pX c #9A9A9B",
"aX c #888E91",
"sX c #A9A896",
"dX c #97ACA9",
"fX c #B2B4B4",
"gX c #ABAAA8",
"hX c #C3BEB8",
"jX c #BCC6BB",
"kX c #B6B9C0",
"lX c #AEC9D5",
"zX c #B2DEF7",
"xX c #C6C9D3",
"cX c #D6D7D9",
"vX c #CBC9C7",
"bX c #D4D7E4",
"nX c #CCD8E9",
"mX c #D4E5F7",
"MX c #FEFEFE",
"NX c #EEEEEE",
/* pixels */
"2.6.2.2.<.,.4.3.3.3.1.>.1.>.2.2.2.2.2.<.2.2.2.<.6.2.<.2.2.2.2.>.2.2.3.1.%.3 9 %.3.<.<.<.2.<.2.2.2.2.2.2.2.2.2.2.2.1.1.2.6.2.2.2.",
"2.2.6.2.2.<.2.2.1.1.3.2.2.2.2.2.2.2.2.2.<.2.2.<.2.>.2.2.2.1.2.1.2.2.4.y.$ s i $ M q.2.>.2.6.2.2.2.2.>.2.>.2.2.2.2.1.1.1.1.2.2.2.",
"3.2.2.2.2.,.<.2.1.2.2.2.2.2.2.2.2.<.<.2.6.2.<.2.2.2.2.2.2.2.2.2.2.2.2.( p u.J Q.4 9 e.2.2.2.2.2.2.2.2.2.>.2.>.2.>.2.1.1.2.2.2.2.",
"2.2.2.2.2.,.2.1.2.>.2.2.2.2.2.1.<.<.2.2.2.<.2.2.2.:.2.1.2.2.2.2.2.2.e.* s.d k.l.z.w ( <.>.<.>.2.2.2.>.2.>.2.2.2.2.2.2.3.2.2.2.2.",
"2.2.2.3.3.3.2.,.,.2.2.2.,.1.2.,.<.<.<.<.<.2.2.<.2.<.>.>.1.2.2.2.>.<Xv s G s G.H [.$ 6X2.2.>.2.6.2.6.2.2.>.2.2.2.2.<.<.2.3.2.<.2.",
"2.2.2.2.2.1.2.,.,.2.,.1.1.2.2.<.<.<.<.<.<.2.2.2.2.2.1.3.2.1.2.y.n % a.{.Q.[.s.[.4 $.<.<.2.>.2.2.2.>.2.2.>.6.2.2.2.2.2.2.2.,.,.,.",
",.2.3.4.,.;.,.,.2.2.1.2.2.2.2.<.<.,.<.,.<.2.2.2.1.1.2.>.2.3.@.$ H }.oX}..X}.oXL n 7.2.2.1.2.2.>.2.>.2.2.2.2.2.2.2.2.2.2.,.;.} ,.",
"..<.<.,...} ;.,.4.2.2.2.4.1.<.,.| ..,.<.2.8.<.,.2.2.2.,.e.n 4 Q..X~. X}.}..XQ., e.2.2.>.>.2.2.2.2.2.2.2.2.6.2.>.2.2.2.2.;.} } ..",
"............} ,.3.3.2.,.,.......} ;.:.2.4.2.;.;.4.3.,.r.< Z {.Q.s.V.}..X[..XI.9 2.2.2.2.1.2.>.2.2.1.2.2.2.2.2.2.2.<.,.} ....} ..",
"........,...} <.3.2.3.;.} { } } { ;.:.1.<.,...} ,.{ r.< L [.V.d.[..X}.[.k.oX'.n 2.2.2.2.2.2.2.>.2.6.2.1.2.2.2.2.<.,.} ..........",
"............} ,.3.9.3...{ } } ..,.} <.:...{ { ..{ q.< L _.a.G.XX}.|..Xz.L.OX*XN 2.2.>.2.1.>.>.1.2.6.2.3.2.2.2.<.} } } ....} ....",
"..........} } ,.3.2.1.....} { ....;.} } ....{ } ..b p /.u.U.oX{.|.}.[.g.}.oXx $.>.>.2.2.,.2.2.2.>.1.2.2.2.3.2.;.} ..} ....} ....",
"......} } { } ,.3.2.;.} ....} ..} ..{ { { ......@.5 (.f.U..X|.}.|..XC.H..XwX7 r.<.2.2.>.2.2.1.2.2.6.2.2.2.2.3.,.} ............,.",
"..{ ........,.,.2.<.;.} } } ....{ { ..{ } ....r.@ L.f.G.XX|.{.}.|.|.d.}.XX0X1 8.>.2.2.2.2.>.2.:.2.2.6.2.2.3.4.,.................",
"......{ ......<.4.<.,.} } ..........} ........n D P.g.XX|.|.|.|.}.J.G.XXoX=XM 2.2.2.>.<.2.2.2.2.>.>.1.2.2.2.,.,.} ..,.....} { ..",
"..} ..} ......,.3.3...} } ..{ ..{ } ..;...} =.& R.u.{.}. X|.|.|.}.d.[.}.$Xk %.<.2.>.2.>.2.>.2.>.1.2.2.2.2.,.{ } ......} } } } ..",
",.{ ......} ....4.4.<.} } ..........,.......M K Z.J.OX}.|.|.}.}.~.V.OXoXeX1 e.2.2.>.>.2.2.2.2.2.6.>.2.1.:...{ } ....,...........",
"..} ..} { ....,.<.<.,.............,.} } ..q.$ R.D B.V.Q.XX}..XoXg.D H d.3X9 3.2.2.2.2.2.2.2.2.2.2.1.2.1.{ ..} } ................",
"..............,.<.....,...} ........} ..4.N d e       . u }.[.y .       + #.2.2.2.2.2.2.2.6.2.2.2.;.} } { ..} ..,...............",
"............,.4.,.} } ......{ } } ..,.,.w.< J.6 o # $     6 %     * y t o &.2.1.2.<.>.2.9.2.2.2.;.;.{ } ......{ ................",
"..........} ,.,.........} { ....;.,.<.3.=.6 /.C.{.|.XXl..     & C.XXoXqX1 w.2.>.2.2.:.2.3.3.<.} ..} ..........} ......} ..} } ..",
"..} ........X...} { ............,.2.2.2.M K /.{.XXT.F.K.y   . V.oX}.oX:Xn 2.1.3.2.2.2.2.<.,.} } } ..,.o.,.} } ........o.o.} } o.",
"................................2.2.>.7.< Z./.{.Q.p.qXqXm.i M.4Xl.}.OX*XN 4.2.2.2.3.3.<.,.....o.} } } ..} } ........} ......} } ",
"......} o...........} ........} ,.<.2.=.5 /./.}.h.`.wXwXqXc.#XwX:XP.+XR ( 2.2.<.2.3.,.} ......o.<X ...} ....{ ..} ..} } o.} ....",
"............} ......} ..........} ,.2.@.p _./.|.f.`.0X9X9Xm.9XqX9Xl.@XR / 4.2.2.2.,.{ [ ....,.1Xg.I.V | { { { } ........o.} ....",
"..........| ..............} } ..,.2.<.n Y B.B.XXR jXC aXvXaXC fXsXs.$XR ( <.2.2.<.| } } } } &.l..X.X[.x *XM.,Xq.......| } } ..} ",
"......o...o.} o.} ..........} } <.7.w.1 Z.p u.OXz.zXm C xXaX= hXbXV.$Xb.^ 1.7.2.6.,.,...} } ,X{.}.{.}.U.u.oX{.;X........{ ....} ",
"o.| } } ....} } } ........} ..,.3.3.r.$ /.g.#.[. X&XdXpXE dXlXmX=X XwX=XM 3.2.6.2.2.3.5.<.<.p. XQ..X|. XJ .X{.-X............} ..",
"} | } } | ..} ..} ..........X.3.w.3. .* /.l.lX*X{.}.H.L.}.H.=XM.).oX%X:Xn 2.1.2.2.2.6.2.2.2.i.XXC.V.].g.f.^.S ) ............} o.",
"X...| | | } } o...o...{ { ..,.7.<.X._ 6 _.N.nXkXc Q.oXoX.XoX.X.X~.g.M.5X2 7.2.2.2.2.2.2.2.>.c..XXXu.J i S H T.i...........} } } ",
"O.X.X...| | ........} ..{ ,.8.7...[ @.w _.B.hXxXlXsXp.k.G.H.x.;XE ^.oXrX1 7.3.1.2.2.3.2.2.e.j.XX{.d.).{.}.XXC.` ..,.| ......| ..",
"X.O.O.O.o.| } } ..} } ..,.2.7.<...o.@.u /.T.2XfXcXMXdXnXlXaXmXmXv..X.XtX7 *.2.2.1.1.1.7.r.p.~.L.K.~.}.f.V.f.U ) ....o.......X.X.",
"O.O.O.O.| | } } ....,.2.2.7.8.<.{ [ %.i ).!.i.uXpXgXC fXfXpXcXkXx.|. XtXc 0 %.%._ *.` c V.].j.>X!.+XOXF.K.Q.j.&...} ..X...X.O.X.",
"| O.| O.| | } } ..,.,.6.9.2.7.3.o.{ m u /.!.~.! bXcXvXNXpXcXsXk.[.{.{.yX=X+ !.P.J.P.).[.l.` t.2.-Xi.i.g l ` *.;.} ......X.X.X.O.",
"| | O.| ..X.} | ,.2.6.2.2.3.2.5.o.,XE 6 /.R.{.V.sXbXxXMXfXMXsX}.|.|.|.wX5X$ {..X[.J.i.' 7X2.3.1...{ [ o.................X.| O.O.",
"O.| | O...| ....2.3.2.2.>.2.6.6.=.H.!.4 /.J.l.oXL.! gXbXaXxXc L.XX|.|.XXrX: g *X,Xr.9.1.2.2.2.,...,.........} } ......X.X.| O.O.",
"O.| O.| | } } <.6.6.2.2.>.2.2.t.n.oXG.$ T.R.g.}..X{.L.V.z.G.Q.{.|.|.|.}.tXj %.2.>.2.2.3.1.3.2.,...{ ..,.} } } } ..o.X.X.X.X.O.O.",
"O.O.O.| } } :.6.2.6.<.2.6.2.2.>X XL.%.9 B./.U {.|.|..XXXXX|.XXQ.L..X|.|.eXR @.>.>.2.2.9.2.2.2.,.} ,.......} } o...X.X.X.O.X.| O.",
"X.| O.| } | 2.6.2.0.6.2.2.2.7Xz.[.*Xo.B K (.f.)..X}.|.|.|.|.XXQ.l..X|. X@X3Xj 3.2.6.1.>.1.3.4.1.} { } ......} ....X.O.O.O.| O.O.",
"O.| | | } :.6.6.2.2.6.2.2.1.>X}.u.q.} %.e _.l.K..X{.|.|.|.|.|.|.l.}.|. X XtX1 t.2.>.2.1.1.>.2.2.,.,.} ;.,.;.} ....X.| O.| | | | ",
"O.O.| | } <.6.2.2.6.2.6.>.6.M.Q.%.<.<.6X$ R.P.g.XX{.XX}.|.{.{.XXk.[.}.|.}.yXh *.:.>.2.2.1.>.2.2.2.,.} <.4.,.} } ..X.X.| | X.O.O.",
"O.| | | <.6.6.<.2.2.9.9.e.=.V.j.e.2.2.6.n Y /.a.}.|.}.{.|.|.|.XXG.J..X|.}.wX! ( <.>.2.2.>.2.2.2.2.,.2.2.8.,.| ....X.X.| O.X.O.| ",
"O.| X.<.6.8.<.<.2.9.6X,XM.a.G.b.7X6X6.6.%.6 _.f.!.}.{.}.|.{.XX}.[.d..X|.|.oX3X9 2.3.2.2.2.1.2.>.,.3.2.7.2.<.| } ....X.| | 5.5.| ",
"X.5.5.<.6.2.2.2.3.6Xn.XXoX.X|.V.L.B.<X6.7.< Z.Z.z.oX}.}.|.}.|.|.XXg.~.}.|..XrX1 t.1.2.2.1.2.3.1.2.3.6.2.2.3.<...} | | | O.5.5.| ",
"<.5.6.2.2.3.2.2.2.-X.XV.Q.|.|.XX}.}.;X>.<.#.y /.s.|.{.{.}.|.|.}..XL.G..X|.|.wXh &.3.2.2.2.2.>.1.1.1.2.2.4.2.<...} ..| | 5.5.5.| ",
"<.2.6.9.2.2.2.2.3.f.a.d.[.|.|.XX}.Q.6X2.2.e.= P.g.Q..X|.|.|.{.}.|.|.g.|.|.|.OX*X( >.2.2.2.2.3.1.6.&.-.&.w.2.<.,.;.| :.5.5.5.:.:.",
"5.<.2.2.2.2.1.2.<.V H.oX|.|.H.v.{.{.m.1X3.6.#.e R.d..X|.|.|.{.}.|..Xl.U.}.}.OX4X9 3.4.>.2.2.3.q.j H h.F h e.2.5.<.<.:.5.5.5.:.:.",
"8.2.2.1.1.1.1.2.<.>XXX|.|.L 1X8Xi.oXoXV.e.2.w.< h.g.~.}.|.|.|.|.|.}.).z.OX).U.4X1 7.1.>.2.2.y.r ].oX_.E.h 4.<.<.<.:.<.6.6.5.<.<.",
"2.2.1.2.>.1.>.>.2.b.XX}.Q.h.c.6.7Xs.K.s.e.3.>.=.% J.k.XX{.}.|.}.}.oX[.d q .       q.1.3.2.q.r |.OX}.(.W / 2.2.2.2.2.2.2.4.<.<.3.",
"2.2.2.2.2.2.2.2.1.,X!.OXg.l.j.e.6.e.*.w.2.1.2.2.M p d.~.}.|.}.XX{.H O   + D k.x.=  .>.>.q.t  XoXXX{.(.p q.<.2.2.2.2.2.2.2.2.2.3.",
"6.2.2.2.2.2.2.2.3.e.*Xi.-X1X7X9.6.>.>.:.2.6.>.2.V = K k..X|.oXQ.%   i H.k.oXXX+Xx - z *.z ^.oXXX}.{.D.z 2.2.2.2.2.2.2.2.1.2.2.2.",
"1.2.2.>.>.2.2.2.3.1.1.1.6.6.9.9.6.5.6.2.6.2.>.>.g F.# L Q.oXV.. o C.oXoXz.L..XOXx Z Q.w F.OXXXXX{._.A $.2.2.2.2.2.2.2.2.>.2.1.2.",
"2.2.2.2.>.2.2.1.2.2.8.2.2.6.9.>.6.6.2.6.6.6.2.4.f +XI * i.G.  5 [.oX|.|.[.k..XoXx Z OXoXoX}..X.X_.S.k q.2.1.>.2.2.2.1.2.2.>.2.2.",
"1.2.1.>.2.2.1.2.>.2.1.2.6.2.>.9.>.6.2.6.6.2.6.,.f OXE.0 ; O % |.XX|.}.{..Xd.~.OXk A {.|.XXXX.X_.(.I %.2.2.2.2.2.>.2.>.2.2.2.>.2.",
"2.2.6.1.>.6.1.2.<.<.>.2.2.6.2.6.2.2.2.2.2.2.2.,.f OXS./ [ X a.OX{.|.}.|.|.).^.oXh = A._.}.}.{.W.E.q 4.3.1.2.2.2.2.>.>.2.1.>.2.2.",
"2.2.1.6.2.6.2.2.<.>.2.2.2.>.2.>.:.<.2.1.2.7.2.2.f OXE.' 2.~ ; ].oX|.}.}.|.}..X{.j $.a (.(.(.W.W.A ^ 2.2.>.>.2.2.2.2.>.1.2.1.2.2.",
"2.2.2.2.2.2.5.>.2.6.>.2.2.2.6.>.2.,.2.2.2.2.6.,.g oXW.x 2.2.] 8 Q.oX{.}.}.}.XXV.n 2.@.A S.D.I y ( 7.1.6.>.3.>.1.1.2.2.2.2.2.2.2.",
"2.2.2.2.2.2.2.2.6.2.9.6.2.2.>.2.,.2.1.2.o.^ l f x.XX{.A *.<.<.] = s.XXXX}.XXXXa.9 3.>./ l B _ w.2.>.6.2.>.3.>.2.2.2.2.2.2.2.2.2.",
"2.2.2.<.<.<.2.2.2.2.6.6.2.2.2.2.<.1. .l i.^..XoXoX.X{.S.x :.>.2.[ v q G..XG.u.G 4 _ 1.2.,.2.2.2.6.1.>.1.1.3.2.2.2.2.2.1.2.<.2.2.",
"2.<.2.:.:.2.<.2.>.2.6.>.6.6.2.2.<.o.f oXOXXX.X}.XXXX_.S.g 1.2.,.1.w.-.> l.a.G G G & &.2.<.2.2.>.1.6.1.3.1.>.>.2.2.2.2.2.1.1.:.2.",
"<.2.<.<.<.<.2.,.1.2.6.6.9.9.2.:.:.x {. X|.}.XXXXXX|._.I %.<.1.2.2.2.1.iX* !.L u.i.O *.2.1.6.2.>.>.1.2.2.>.>.2.3.2.2.2.2.:.1.1.,.",
"<.<.2.<.1.2.:.2.>.>.6.6.>.6.2.2.2.h A.D.S.E.W.(./.W.I ` 2.>.2.>.2.2.4.3.v g.a.s # N 8.2.6.2.1.2.1.6.6.2.>.2.2.2.2.2.2.<.,.2.,.2.",
"1.<.<.2.,.2.2.,.1.2.6.9.2.1.2.<.1.o.^ ^ z z x c t l _ 1.2.<.2.1.1.2.2.2.-.@ : 9 %.2.2.6.1.>.>.1.6.>.2.1.2.>.2.6.2.2.2.<.<.2.2.<.",
",.<.<.<.2.,.1.2.2.2.2.2.2.:.2.<.1.1.>.1.3.3.6.5.5.2.1.2.<.>.<.2.2.>.2.2.2.1.2.2.1.2.2.2.>.1.>.2.1.2.2.2.2.2.>.2.2.2.2.2.<.,.2.,."
};

