/* XPM */
static char *_48ae00a7afa4bb3edad190913758afccxOtlmNcZIilA1HL[] = {
/* columns rows colors chars-per-pixel */
"64 64 141 2 ",
"   c #7F55E7",
".  c #755DE7",
"X  c #795BE7",
"o  c #7E57E8",
"O  c #765FE9",
"+  c #7B5AE9",
"@  c #5E76ED",
"#  c #5E79ED",
"$  c #6E67EA",
"%  c #676FEC",
"&  c #6B6BEB",
"*  c #7361E7",
"=  c #7363EA",
"-  c #6473EC",
";  c #6871ED",
":  c #6178ED",
">  c #BE16DF",
",  c #B71DDF",
"<  c #BB1BDF",
"1  c #B223DF",
"2  c #BF17E0",
"3  c #B61FE0",
"4  c #BB1CE0",
"5  c #9E36E3",
"6  c #963EE4",
"7  c #9A3AE4",
"8  c #AE27E1",
"9  c #A62FE3",
"0  c #AB2AE2",
"q  c #B323E1",
"w  c #A233E3",
"e  c #CF07DC",
"r  c #C60FDD",
"t  c #CB0CDE",
"y  c #D502DD",
"u  c #D503DE",
"i  c #D603DE",
"p  c #D700DC",
"a  c #D205DC",
"s  c #D106DC",
"d  c #D306DD",
"f  c #D207DD",
"g  c #D205DE",
"h  c #D404DC",
"j  c #D504DC",
"k  c #D505DD",
"l  c #D404DE",
"z  c #D403DB",
"x  c #D801DB",
"c  c #D800DD",
"v  c #D802DC",
"b  c #D902DC",
"n  c #D901DE",
"m  c #D802DE",
"M  c #D008DD",
"N  c #C312DE",
"B  c #C213DE",
"V  c #C411DE",
"C  c #C610DE",
"Z  c #C710DE",
"A  c #C711DF",
"S  c #C512DF",
"D  c #C413DF",
"F  c #C114DF",
"G  c #C015DF",
"H  c #C314DF",
"J  c #C313DF",
"K  c #C811DF",
"L  c #CA10DF",
"P  c #C215E0",
"I  c #C116E0",
"U  c #C316E1",
"Y  c #C415E0",
"T  c #C215E0",
"R  c #C018E1",
"E  c #8D45E5",
"W  c #8F44E5",
"Q  c #8D47E5",
"!  c #8D47E6",
"~  c #8E46E6",
"^  c #8F47E7",
"/  c #8E46E6",
"(  c #844FE5",
")  c #854EE7",
"_  c #844FE7",
"`  c #864EE7",
"'  c #864EE7",
"]  c #8949E5",
"[  c #8B48E5",
"{  c #8A49E5",
"}  c #8A48E6",
"|  c #8B48E6",
" . c #8B49E7",
".. c #884BE6",
"X. c #8A4AE6",
"o. c #8B4AE6",
"O. c #8B4BE7",
"+. c #8C49E6",
"@. c #8C49E7",
"#. c #8E48E6",
"$. c #8F48E6",
"%. c #8E48E7",
"&. c #8C4BE7",
"*. c #894CE7",
"=. c #884DE7",
"-. c #8A4BE7",
";. c #864FE8",
":. c #874FE8",
">. c #864FE8",
",. c #8D4AE8",
"<. c #894EE8",
"1. c #8A4DE8",
"2. c #9241E4",
"3. c #9341E4",
"4. c #9143E5",
"5. c #9342E5",
"6. c #9540E4",
"7. c #9740E5",
"8. c #9641E5",
"9. c #9442E5",
"0. c #9540E6",
"q. c #9044E5",
"w. c #9045E6",
"e. c #9145E6",
"r. c #9244E6",
"t. c #9243E5",
"y. c #8252E6",
"u. c #8353E7",
"i. c #8054E7",
"p. c #8153E7",
"a. c #8251E8",
"s. c #8351E8",
"d. c #8052E8",
"f. c #8153E9",
"g. c #8352E9",
"h. c #8550E8",
"j. c #8651E9",
"k. c #8452E9",
"l. c #8155E8",
"z. c #8254EA",
"x. c #8253E8",
/* pixels */
"x v v v v v p p g g M M M t t t t r L V V Y I I I I > 4 , , 4 , q q q q 8 8 8 8 0 0 9 9 9 9 w 9 w w w w 5 5 7 7 7 6 6 6 5.5.5.5.",
"p v p v v v z p a a e e t e t t r r L V V I I 2 R 4 4 4 4 4 q q , q q q 8 8 8 0 0 0 0 9 9 9 w w w w w w 5 7 7 7 7 6 6 6 6 5.5.W ",
"v v p v x p a g e e e e t t t L r V V Y I I > I R < 4 4 , q , q q q q q 8 8 8 0 0 0 9 9 9 w w w w w 7.w 5 7 7 6 6 6 6 5.5.5.W 5.",
"v v p p d h h a g e e t e t r L r Y V V Y R 2 < < 4 4 4 4 q q q q q q 0 0 8 0 9 0 9 9 9 w 9 w w w 7 w 7.7 7 7 7 6 6 6 5.5.5.W W ",
"v p p p g g d M e e t t r L r r V V G Y I I 2 4 4 4 < 4 q q q q q 8 1 8 8 0 0 0 9 9 9 w w w w w 7 7 7 7 7 7 6 6 3.7.5.5.W q.q.%.",
"p n p d h a M e e t t t L L r Y Y V G I 4 G 4 < 4 4 1 4 4 q q q 8 0 0 8 0 0 0 0 9 9 9 w w 5 w 5 w 7 7 7 7 7 6 7.3.2.5.5.W W W W ",
"p p d p a g e e t t t r r r r Y V I I 2 I 4 4 4 , q 4 , q q q q q 8 0 0 0 0 9 9 9 9 w w w 5 7 5 7 7 7 7 7.7 7.7.3.7.q.q.W W  . .",
"v p d g a M e t t t t L L r Y Y I I 2 R I 4 4 < 4 q q q q q q 0 8 0 0 0 9 0 9 9 w w w w 5 5 w 7 7 7 7.7 6 7.5.5.2.q.q.q.#.[  . .",
"d h g g M e t t t t r L C V P P G > R R 4 4 4 1 q q q q q q 8 8 8 0 0 0 9 9 9 9 9 w w w w 7 7 5 7 6 7 7 3.7.5.7.q.q.W #.#. .#.*.",
"d h g M e g t t t r C C V P P P R I 4 4 < , < , 4 q q q q 8 8 8 0 0 0 0 0 9 w 9 w w w 7 7 w 7 7 7 7 6 7.3.2.2.q.q.q.W ,.#.*. .*.",
"h a M M t t t t r r C V C P 2 2 4 R 4 < < , q q q q q q 8 8 8 0 0 0 0 9 9 9 w 7 w w w 7 w 7 7 7 7 7.7 3.7.9.5.q.q.^ #.W [  .*.*.",
"a a g t e t r t r C C V P P 2 2 R 4 < 4 4 q 4 q q q q 8 8 0 0 0 0 9 9 9 9 w w w 7 w 7 w 7 7 7 7 6 6 3.3.3.q.q.q.q.W ,.#.&. .` *.",
"M M e t t t L L r r Y B P 2 2 2 4 4 4 , 4 q q q q q 8 8 8 0 0 0 9 0 0 9 w w w w w 7 w 7.7 7 7.7 6 6 5.5.7.q.q.q.W #.#.[  .*.*.h.",
"M e M L L L r L V Y B I 2 2 2 4 4 , 4 4 q q q q q q 8 8 8 0 0 0 9 9 9 9 w w w w 7 w 7 w 7 7.7 7.6 6 2.5.q.^ q.W #.&.] *.*.*.h.h.",
"t e t L t r r B Y B G I 2 2 4 4 < 4 R q q q q q 8 q 8 0 0 0 0 9 9 w 9 w w w w w w 7 7 7 7 w 7.8.7.2.5.5.q.q.W [  . . ...*.` h.h.",
"e M L r r r Y r P B 2 2 > > 4 4 4 4 q q 4 q q q 0 8 8 0 0 9 0 9 9 9 w w w w 7 7 7 7 7 7.7.7.8.8.5.5.W W q.^ [ ]  . .*.*.` ( h.h.",
"L L t r r r V P I I I I 4 4 , 4 4 q q q q 8 8 8 0 0 0 0 0 9 9 9 w w w w w 5 5 7 7 7 7 6 6 6 6 5.5.q.q.q.#.[ [ #.*.*.*.h.h.j.h.h.",
"t t L C C P V P I 2 2 4 4 4 , q 4 q q q q q 8 8 1 0 0 0 9 9 9 9 w w w w w 5 5 7 7 7 7 6 6 7.5.5.q.q.q.q.#.#.#.*.*.*.*.h.h.j.u.p.",
"L r C L C B P P > 2 R 4 4 4 q 4 q 4 q q 8 1 1 0 q 0 0 9 9 9 9 w w w 5 5 7 7 5 7 7 6 6 6 7.5.5.W W W ,.#.] &.*.*.*.` ` h.k.y.g.z.",
"t r C Y P P P 2 R R 4 R 4 4 4 q q q q q 8 0 1 8 0 0 9 9 9 9 w w w w w w 5 7 7 7 6 7 6 6 2.2.5.5.W W #.W #.&.*.*.*.h.` h.k.y.z.z.",
"C r B B P > 2 2 R 4 4 < 4 4 q q q q q 8 8 1 0 0 0 9 9 9 w w w w w w 5 5 7 7 7 7 6 6 6 6 5.5.q.W ^ #.#. . . .*.*.*.h.h.k.y.p.p.o ",
"C r B B P 2 > 2 4 < 4 q q q q q q q 8 8 8 0 0 0 0 9 9 9 w w w 5 w 5 7 7 7 7 7 6 6 6 r.r.5.r.r.%.W #.#. .*.*.*.` h.h.y.k.z.p.o z.",
"Y Y Y G > 2 2 4 R < 4 4 4 q q q q q 8 8 0 0 0 0 0 9 9 w w w w w 5 5 7 5 7 7 6 6 6 5.r.r.r.q.W ,.,. .#.*.*.*.h.` h.h.k.u.l.l.o o ",
"B r I I 2 R < < < 1 , 4 q q q 8 q 0 0 8 0 0 0 9 9 9 w 9 w w 5 5 5 5 7 7 7 7 6 6 5.5.0.6 q.q.%.W ,. .*.*.*.h.h.h.h.y.p.o l.l.o o ",
"P P I 2 R < < , 4 < , q q q q q 0 q 0 0 0 0 9 9 0 9 w w w w 5 5 7 7 7 7 6 6 6 6 2.9.q.q.q.#.W *. . .*.*.` ` h.g.y.p.o p.o l.o + ",
"P I 2 2 < , < 4 q q 4 q q 8 8 8 8 0 0 0 0 9 9 9 w 9 w w 5 w 5 7 7 7 6 7 6 6 6 r.9.q.q.q.W #.#. .*. .` ` ` h.k.g.z.p.p.l.o + + + ",
"P I 2 2 4 4 4 4 4 q q q 8 q 0 q 0 0 0 0 0 9 9 w w w w w 7 5 7 7 7 7 6 7 6 5.5.0.q.q.q.Q #.#.*.*.` *.` ;.k.y.k.z.z.p.o l.l.+ + + ",
"2 I 4 4 , , 4 q q q q q q 8 q 0 0 0 0 0 9 9 9 w w w w 7 w 5 7 7 7 6 6 r.7.5.7.W q.q.W  . . .<. .*.` ` ` k.h.y.p.o p.o o + + + + ",
"2 2 4 4 4 3 4 q q q q q 8 0 0 8 0 0 9 0 9 9 w w w w 7 w 7 7 7 6 6 6 6 7.5.6 W W e.e.Q #. . .*.<.*.j.*.h.y.k.z.o z.z.+ + + + + = ",
"2 4 4 4 4 4 q 4 q q 8 q 8 8 0 0 9 0 9 9 9 w w w w 5 w 7 7 7 7 7 6 6 2.6 5.W 5.W e.[ #.#. .*.` ` h.h.h.k.z.p.p.z.o o + + + + + O ",
"4 4 4 4 q 4 q q q q q 8 8 8 0 0 0 9 9 9 w w w w w 5 5 w 7 7 7.7 6 6 5.2.5.q.W q.[ #.#.]  .( *.` ;.k.y.k.p.p.z.o o + + + O + + = ",
"4 4 4 4 3 q 8 q q q 8 8 0 0 0 0 9 9 9 9 w w w w 5 7 7 7 7 7 7 7.6 6 5.5.q.q.W W #.#.&.*. .*.*.` k.k.g.p.o l.o o o + + + + + + = ",
"4 4 q 4 q q q q 8 8 1 0 0 0 0 9 9 9 w w w 5 5 5 5 7 7 7 7 7 6 6 6 2.q.9.^ q.^ #. . . .*.*.j.` k.y.g.g.o z.o o + + + + + = O = + ",
"4 q 4 4 q q 8 q 8 0 0 0 0 9 0 9 9 9 w w 5 w 5 5 5 7 7 7 6 6 3.6 5.5.q.q.q.^ #.,. . .( *.*.j.` k.g.g.g.o z.o o o + + + + + = = = ",
"4 q q q q q q 8 8 8 0 0 0 9 9 9 9 5 w w w 5 5 7 7 7 7 6 6 6 5.2.2.5.W W W #.#.*.*.*.*.` ` h.h.g.g.o o z.+ o + + + + = = O = = = ",
"q q q q q q 0 q 8 8 0 9 0 9 9 9 9 w w w 5 5 7 5 7 7 7 6 6 3.7.5.5.q.W W #. .#.&. .*.*.` h.h.z.y.g.g.o o o + + + + + = + = + = = ",
"4 q q q q 8 0 8 0 0 9 0 9 9 9 9 w w w 5 5 5 7 7 7 6 6 6 7.5.q.5.W q.W #.#.*. .*.*.` ;.;.y.k.y.p.  o o + + + + + + O O O O = = = ",
"q q 1 q q 8 8 0 0 0 9 9 9 9 9 w w 5 w 5 5 7 7 6 6 7 6 7.7.7.5.W q. .W #. . . .*.*.;.;.k.k.y.z.o z.o o o + + O + = = + = = = = = ",
"q q q 8 q 0 0 0 0 0 9 9 w w w w 5 5 5 5 5 7 6 7 6 6 7.5.7.q.5.q.q.#.#. .&.] *.` ` ` ;.g.y.y.z.z.o o o + + + + + + = O = = = = $ ",
"q q q 8 0 8 0 0 9 9 9 9 w w w 5 5 5 5 7 7 7 7 6 6 7.7.5.r.q.W ,.^ #. .#.] ..*.h.` k.k.g.  z.o o o + + + + + = O + = = = $ = $ $ ",
"8 8 1 0 0 0 0 0 9 9 9 w 9 w w 5 5 5 5 7 7 7 6 6 6 7.2.5.q.q.W W #.#.*. .*.*.k.*.k.k.y.g.o z.o o o + + + l.= = l.= = = $ $ $ $ $ ",
"1 8 0 0 0 0 9 0 0 9 w w w w w 5 5 5 7 7 7 6 6 6 3.2.7.q.q.W #.W #.*.*.*.*.;.` k.k.k.g.  l.o o + + + + o = + = = = = = $ = = $ $ ",
"8 8 0 0 0 0 9 9 w w w 5 w w 5 5 7 5 7 7 7 6 6 3.2.2.W W q.W #. . . .*.*.;.` h.h.g.    o o o o + + + + = + = = = = = = = = $ $ & ",
"8 8 1 0 9 9 0 9 w w w w w 7 7 5 7 7 6 6 6 7.7.3.5.5.W W #.#.*.,.*.*.*.h.` k.y.g.g.z.g.o o o + + + + + = + = = = = = = = & & & & ",
"0 0 0 0 0 9 9 9 w w w w w 5 7 5 7 7 6 6 6 3.3.3.W 2.W #.#.#.&. .*.*.` h.h.h.k.p.  g.o o o o + + O + = = = = = = = = $ = & $ & & ",
"0 0 0 9 9 9 w 9 w w w w 5 5 7 7 7 6 7 6 6 2.3.e.5.q.W #. .&.*.*.*.*.` h.h.h.p.z.  o o o o + + + + = = + = = = = $ $ $ $ & $ & & ",
"0 0 0 9 9 9 w w w 5 5 5 5 7 7 6 7 7 7.6 7.3.2.Q Q Q #.#. . .*.` *.` h.h.u.g.y.p.p.o o o + + = + X + * = = = = $ $ $ $ & & & & & ",
"0 0 9 9 9 w 9 w w w 5 5 7 5 7 7 6 7.7.7.2.2.e.2.#.W  .] ] *.*.*.h.h.h.h.u.p.p.o o o + + + + + = * = X = = = = $ = $ & & & & & ; ",
"9 9 9 9 w w w w w 7 5 7 7 7 7 7.6 6 3.7.2.W W #.W ,. .&.<. .` ` ` y.y.p.p.l.l.l.+ + + + l.= * l.= * = = = $ = = $ & & & & ; ; ; ",
"9 9 9 9 w w w 7 7 w 5 7 7 6 7 6 6 3.7.2.q.W W W #.#.#.*.*.*.` h.k.g.g.p.l.l.+ o o l.+ + = l.* = X = = = $ $ $ $ $ & & & ; & & ; ",
"9 9 w w w w w 7 7 w 7 7 5 6 7.7.5.2.9.9.q.q.#.W  . .*.*.<.;.` h.g.y.z.z.l.o + l.o X + + + = = = = = = = = $ $ $ & & & & & ; ; % ",
"9 9 w w w 5 w w 7 7 7.7 6 6 6 3.7.9.q.q.q.#.#. . .*.*.*.;.` k.g.y.g.p.l.o + o o l.= + * l.= + = = = = = $ & $ & & & & & ; % % % ",
"9 w w 7 w 7 5 7 7 7 7 7 6 6 3.3.9.q.q.q.W #. . ...*.*.j.` h.g.g.g.z.o o o o + + + + + = * = * = = $ = $ $ & & & & & & % % % ; - ",
"w w w w 5 w 7 7 7 7 6 7.7.3.3.3.q.q.q.^ #.#.*. .*...` ` h.h.g.g.y.z.o o o + + + + = + = = = = = = $ $ $ $ $ & & & % % % % ; - - ",
"w w w w 7 w 7 7 6 7 7 7.3.3.3.9.q.^ Q [ ]  .*.*.*.h.h.j.h.g.g.y.l.+ o o + + + + = + + = = = = $ = = $ & $ & & & & % % - % - - - ",
"w w w 7 7 7 7 7 7 6 7.3.3.7.q.q.q.W W ] .. .*.*.j.*.*.u.y.y.z.o l.l.o o + + X + + O O = = = = = $ $ & $ $ & & & % & % % % - - @ ",
"w 5 5 5 7 7 5 7 6 6 6 3.7.5.q.q.q.#.#.#.*.*.*.*.;._ y.g.k.p.z.o o o + + + + O + = * = + = = = $ $ $ $ & & & & & % % % - - - @ @ ",
"w 5 7 5 7 7 7 6 6 5.2.5.q.q.q.W #.#. . .#.*.*.` ;._ g.y.p.o p.o o + o O + O + O = = = = = = = & $ $ & & % & % % % % - - - - ; @ ",
"7 7 5 7 7 7 7 6 6 7.5.5.q.r.^ ^ #. . . .<.*.` ` _ g.y.z.p.o o o o X + + + X * = = = = = = $ $ = $ & & & % & ; % % % - - - - @ @ ",
"w 7 7 7 7 3.6 6 7.5.5.q.r.q.q.,.#. .*.*.*.h.k.h._ g.z.p.p.o o o + + + + X = X = = = = = = & $ & % $ & % & % % ; ; - - - @ @ @ : ",
"7 5 6 6 6 6 6 3.7.9.q.q.W #.#.,. .*.*.*.` ` h.g.g.y.    o o + + + o + + = = = = = = = $ = $ * & $ & % % & ; - ; ; ; - - @ @ : # ",
"7 7 7 7 6 6 7.3.q.q.q.W ,.^  .#. . .` ` ;.h.g.g.    z.o o o o + + + = + = X = = = = $ $ $ & & & % & % & & % - - - - @ @ - : @ # ",
"7 7 7 7.6 3.7.q.q.q.q.W #.#. . . .` ` ;.` g.g.p.o g.o o o + + o + = * = X * = = = = = $ & & & & & % % % ; - - - @ @ @ : # # # # ",
"7 6 7.7.5.7.5.9.q.q.#.W ] *.*.*.` ` ` k.g.y.y.p.y.o o o o + + + + = + = = * = = = $ & & & $ & % & % ; & ; - ; ; @ - : : : # # # "
};
