/* XPM */
static char *deb55933ecfa4f4afc92a9cfb96917992wCuA7z39lPF4zpe[] = {
/* columns rows colors chars-per-pixel */
"64 64 242 2 ",
"   c #0E0C09",
".  c #261713",
"X  c #3E2818",
"o  c #323119",
"O  c #373721",
"+  c #462C1A",
"@  c #4A341D",
"#  c #44371B",
"$  c #56391C",
"%  c #4B3724",
"&  c #543C24",
"*  c #583923",
"=  c #543E30",
"-  c #633A23",
";  c #394C1F",
":  c #3A4F25",
">  c #3F702E",
",  c #52451D",
"<  c #47451C",
"1  c #67451C",
"2  c #73491F",
"3  c #474824",
"4  c #584627",
"5  c #485828",
"6  c #565528",
"7  c #4E4532",
"8  c #5A4A37",
"9  c #565B3D",
"0  c #654324",
"q  c #6B4624",
"w  c #6D4A24",
"e  c #6C4B2A",
"r  c #654928",
"t  c #724C25",
"y  c #734C2B",
"u  c #7A4C29",
"i  c #6A5628",
"p  c #765126",
"a  c #7C5425",
"s  c #75532A",
"d  c #7C522B",
"f  c #7B5B2C",
"g  c #795A29",
"h  c #674C36",
"j  c #764D32",
"k  c #6A5836",
"l  c #745332",
"z  c #7A5431",
"x  c #7D5B34",
"c  c #795A3D",
"v  c #466729",
"b  c #57672C",
"n  c #596C35",
"m  c #4D7C32",
"M  c #577735",
"N  c #4F7230",
"B  c #636635",
"V  c #766438",
"C  c #686931",
"Z  c #474642",
"A  c #6B5748",
"S  c #755944",
"D  c #7D5D50",
"F  c #5A7240",
"G  c #79654D",
"H  c #786655",
"J  c #70714F",
"K  c #747277",
"L  c #83552B",
"P  c #845B2C",
"I  c #8C5C2C",
"U  c #835626",
"Y  c #925E2C",
"T  c #845632",
"R  c #845B32",
"E  c #8B5C32",
"W  c #845D3B",
"Q  c #8B5C3A",
"!  c #935E39",
"~  c #824B34",
"^  c #8C612B",
"/  c #94632D",
"(  c #9B662E",
")  c #99682E",
"_  c #8D6233",
"`  c #886336",
"'  c #946434",
"]  c #9A6634",
"[  c #956934",
"{  c #9B6934",
"}  c #96643B",
"|  c #9A663A",
" . c #9A6939",
".. c #A26936",
"X. c #A16B2D",
"o. c #896748",
"O. c #867D4C",
"+. c #9B744C",
"@. c #94714B",
"#. c #856953",
"$. c #9A6F56",
"%. c #877257",
"&. c #9C7A55",
"*. c #987759",
"=. c #956E49",
"-. c #A1794E",
";. c #A67B5B",
":. c #957A65",
">. c #8B706F",
",. c #A47F63",
"<. c #A07475",
"1. c #8F5851",
"2. c #4B8936",
"3. c #54843B",
"4. c #548B3C",
"5. c #578737",
"6. c #4E9739",
"7. c #54933C",
"8. c #539B3C",
"9. c #5A973A",
"0. c #4B822F",
"q. c #638F37",
"w. c #63903D",
"e. c #55A23E",
"r. c #5D8C41",
"t. c #5A9742",
"y. c #67874A",
"u. c #67984A",
"i. c #788852",
"p. c #77944B",
"a. c #5AA542",
"s. c #5CAB45",
"d. c #5CAB49",
"f. c #59A346",
"g. c #5EB44B",
"h. c #5FBB4E",
"j. c #5FBC51",
"k. c #66AA49",
"l. c #62B44B",
"z. c #63BC4E",
"x. c #6CBC4E",
"c. c #64B447",
"v. c #71BC4F",
"b. c #64BC51",
"n. c #6CBD51",
"m. c #71BD51",
"M. c #7CA24F",
"N. c #65C24E",
"B. c #69C24F",
"V. c #6ACA4F",
"C. c #67C94E",
"Z. c #66C351",
"A. c #6AC652",
"S. c #67C951",
"D. c #6BCA53",
"F. c #6ECB59",
"G. c #71C453",
"H. c #71CC54",
"J. c #72CB5B",
"K. c #72D056",
"L. c #868954",
"P. c #9C895B",
"I. c #899456",
"U. c #A8845C",
"Y. c #BA885D",
"T. c #88A652",
"R. c #9B8666",
"E. c #8C8769",
"W. c #A48562",
"Q. c #A98869",
"!. c #B38A67",
"~. c #B5926C",
"^. c #B99369",
"/. c #AD8C73",
"(. c #AA8973",
"). c #AB9275",
"_. c #B69979",
"`. c #AD916F",
"'. c #BDA37B",
"]. c #C59364",
"[. c #C49B78",
"{. c #D69F79",
"}. c #D09E6D",
"|. c #C4A27C",
" X c #CEAA7E",
".X c #CCA47A",
"XX c #D8A77A",
"oX c #DEB07F",
"OX c #E4AD7B",
"+X c #959291",
"@X c #A59987",
"#X c #A79E95",
"$X c #AA9284",
"%X c #B4A997",
"&X c #BAB7AD",
"*X c #ADABA9",
"=X c #CCAB85",
"-X c #CAA886",
";X c #D5A984",
":X c #D7B488",
">X c #CCAD93",
",X c #DCBA91",
"<X c #DAB797",
"1X c #EBBC8B",
"2X c #E4B889",
"3X c #F3B989",
"4X c #E2BC95",
"5X c #E7BE94",
"6X c #E4AF83",
"7X c #E2BDA2",
"8X c #CCAEB6",
"9X c #F4C48E",
"0X c #EDC593",
"qX c #ECC59B",
"wX c #EECD9C",
"eX c #E5C496",
"rX c #F3C394",
"tX c #F5CB96",
"yX c #F9CB96",
"uX c #F3C59B",
"iX c #F5CC9A",
"pX c #FACC9B",
"aX c #F8C492",
"sX c #FBD19D",
"dX c #F4D19C",
"fX c #EBC28A",
"gX c #D1C2B0",
"hX c #F6CDA2",
"jX c #F4D3A4",
"kX c #FCD3A3",
"lX c #F6D3AB",
"zX c #FCD4AB",
"xX c #FEDBA9",
"cX c #FBDDBD",
"vX c #F9D8B3",
"bX c #E5C5A5",
"nX c #FEE6BE",
"mX c #C5C4C1",
"MX c #FADFC2",
"NX c #FEE2CC",
"BX c #FEFCFA",
"VX c #EDECEA",
/* pixels */
"D.H.D.D.D.Z.D.F.D.F.F.S.D.D.C.D.D.D.D.D.A.D.D.F.D.V.D.D.D.D.V.D.V.H.F.D.D.D.H.D.D.A.A.D.D.D.D.H.V.D.D.V.D.D.D.D.D.S.D.D.F.D.D.D.",
"D.D.H.D.Z.F.A.F.D.D.D.D.S.D.S.D.D.D.D.D.F.D.A.D.A.C.D.D.C.D.D.D.C.D.D.D.A.D.D.F.A.D.D.A.A.D.D.V.D.D.V.H.D.V.V.D.D.D.S.D.S.D.D.D.",
"D.F.D.D.A.Z.Z.D.S.D.D.D.D.D.D.D.D.D.D.D.A.F.A.D.D.D.A.D.D.D.l.g.D.D.D.D.D.D.D.G.D.A.A.D.D.V.D.D.H.D.D.D.C.D.D.D.D.F.S.D.A.D.S.D.",
"D.F.D.D.D.A.D.S.S.D.D.D.D.D.S.D.A.A.A.A.D.D.A.D.D.D.D.A.A.b.v   5 7.3.n 3.d.A.H.D.A.A.A.V.D.H.A.D.V.D.D.K.D.D.V.D.S.D.S.F.D.D.D.",
"D.D.S.D.D.F.D.Z.Z.D.S.F.Z.D.S.A.A.A.A.D.A.F.D.A.S.D.D.l.; O y q e z E ' * : S.F.D.A.D.D.D.D.C.D.D.D.D.V.D.D.D.D.D.A.A.D.D.D.A.F.",
"D.D.F.D.F.A.D.Z.D.Z.D.S.D.S.F.A.A.A.A.A.A.D.D.D.D.A.D.a.+ # @ k q x T R } B d.D.D.D.V.D.D.D.D.D.D.D.D.D.V.H.D.D.D.D.D.D.D.Z.Z.Z.",
"Z.D.F.F.Z.Z.Z.S.D.D.Z.D.S.D.D.Z.Z.Z.B.Z.A.D.A.D.D.H.V.3 l X O h X X + @ & + 7 b.D.C.D.V.C.D.D.D.V.D.D.D.D.D.D.D.D.D.D.F.Z.N.z.N.",
"z.Z.A.Z.b.h.z.Z.A.D.D.S.F.F.Z.Z.z.B.Z.x.F.F.Z.N.y.J N )._.H D H = Q.h H 3 = a.F.D.D.V.D.D.D.D.D.D.D.D.D.H.D.D.D.D.D.D.S.N.z.z.b.",
"b.b.Z.b.b.b.z.Z.F.F.D.A.Z.b.b.b.N.Z.N.A.F.A.b.u._.`.*.@X&XmX*X#X*.).E.*X@X$Xy.N.S.D.D.D.D.D.D.D.D.D.D.F.D.D.C.F.D.A.Z.z.b.b.z.b.",
"z.j.b.b.Z.b.b.Z.F.F.D.Z.b.h.z.j.z.N.Z.D.S.b.b.r.:._.G gXBXK   mX*X+XgX+XVX&XJ G t.Z.V.D.D.D.S.D.D.l.N.D.D.D.D.D.A.Z.b.h.b.b.b.b.",
"b.b.b.b.b.b.z.Z.F.F.D.z.h.j.j.b.Z.b.Z.Z.b.b.h.d.#.:.%.@X%XJ . >.#X#XZ   gXBXH $.3.D.D.D.C.D.D.D.z.>Xu.S.D.D.H.Z.z.z.b.b.b.N.b.b.",
"b.b.b.b.b.b.z.A.F.F.N.N.b.z.j.b.b.z.z.z.b.b.a.i.=XqXjXdXbXbXS h P.>X(.. +X#XA A a.D.D.D.D.S.D.D.c.4Xu.H.Z.D.S.Z.z.z.z.b.b.z.b.b.",
"b.b.j.z.b.j.z.Z.F.A.b.b.b.j.z.z.b.b.b.b.z.e.U.hX-X-X0XdXqXU.Q.#.o.'.k H 7X:X&.B B.D.D.D.D.D.D.D.l.7Xu.k.H z.F.Z.z.b.b.j.b.b.b.b.",
"b.b.b.b.b.b.b.Z.D.D.z.z.b.h.g.4.m 8.b.z.n.J fX%.%.:XtXiXuX5XpXkXsXfX-X>X_.wXyXL.D.D.D.D.D.D.C.C.l.bXk.J -Xr.A.Z.b.b.b.b.b.b.b.j.",
"b.b.b.b.b.b.b.Z.F.A.Z.z.z.b.N E Y W 3.z.a.[.oXo.,XsXtXpXiXiXiXuXiXdXsXwX X%.[.:Xc.D.D.V.D.D.D.A.l.7Xi.8 >.9 d.j.z.b.b.Z.z.z.b.b.",
"b.b.b.h.b.b.Z.Z.F.D.Z.z.z.d.l ] ] ..y 8.3.XXpX=X'.kXtXiXtXiXtXiXvXvXjXiXjX,X;XrXw.D.G.V.D.D.D.d.y.<X$.,.h -Xn t.Z.b.b.z.b.z.Z.b.",
"b.h.b.j.b.h.b.b.F.A.Z.b.b.m L { } { _ 6 M {.aXiX*.=XkXtXiXiXiXjXcXnXhXiXiXpXpX5XB H.D.A.F.S.D.4.-X/.[.{.S {.(.E.b.Z.b.b.b.b.b.b.",
"b.b.z.b.b.b.b.Z.Z.A.Z.j.g.6 L ' ' ] I ` % ].1XdX0XG _.dXsXyXiXhXlXzXiXtXiXhXpXXXa.C.D.H.D.D.D.l.).W.}.Y.P.P.(.r.b.j.b.b.Z.b.b.b.",
"Z.b.b.b.b.b.b.A.A.Z.Z.b.d.r f { { / a { d +.6XfXhX,X%.$X'.qXsXsXiXiXwXiXiXiXkXW.; m N.C.V.D.D.F.i.[.].].8 A 7 k.b.b.b.b.b.l.b.b.",
"b.b.b.b.b.b.Z.A.Z.b.b.b.r.i ^ / ) P P ] ( p o.2XyXsX;X>.&X+X_.;XrXiXsXjXiX0X;Xl y - b s.H.D.D.Z.i.2X$.Y.*.U.B z.b.b.Z.b.b.b.b.b.",
"b.b.b.b.b.b.Z.Z.b.z.b.j.6 P [ / ' P E ] ( [ s #.-XpXaXY.>.8X&X+X@X%X(./.`.!.W E  .I T & d.D.Z.Z.M.vX2X[.Q.}.L.z.b.b.b.b.b.b.b.b.",
"b.b.b.b.b.b.n.b.j.b.b.2.q [ { ' / U E ] ( ( ] Y u $.:XOX!.1.<.$X:.).|.,XqX;.W  .' =.' w ; N.b.b.u.hXkXjX4XXXL.b.b.b.b.b.b.b.b.b.",
"b.b.b.b.b.b.b.b.b.b.b.6 E [ / g p a L ] ] ] } L L q u o.!.;X2X5X1XtXjX=Xk h x U / [ ] L & s.h.h.j.M.hXkXpXxXL.b.b.b.b.b.b.b.l.b.",
"b.b.b.b.b.b.b.b.b.b.4.f [ [ ^ p s r q T ] ] z ;.-X-X*.1 t R o.@.@.+.=.l Q.0XqX~.d Y ] ' e v b.z.b.g.A <XsX,Xw.z.b.b.b.l.b.b.b.b.",
"b.b.b.b.b.b.b.b.b.d.g [ [ U a a 4 . v b _ T &.xXkXvXhX_.-.R z t d y x j wXyXkXcX;Xl } ' E + e.b.b.6.+ 8 (.7 2.b.b.b.b.b.b.b.b.b.",
"b.b.b.b.z.b.b.z.g.B { [ P a a 1 o 2.Z.l.k l Q.vXcXvXyXkXzXW.h %.G S *.=XjXpXsXcXcX#.T { ] z 3 h.b.2.q l @ - 2.z.b.b.b.b.b.b.b.b.",
"b.b.b.b.z.b.b.z.N T { [ _ a p 4 8.F.D.A.M L ,.zXNXvXrXiXiXuX4XiXfXiXqXkXiXiXiXjXnX~.p ( ] E e 5 h.7.y P { } v b.b.b.b.b.b.b.l.b.",
"b.n.b.b.b.b.z.l.3 I [ ' U p 0 ; J.J.b.b.7.~ o.jXNXlXtXiXiXhXiXiX9X1XpXyXtXiXtXdXnX XL ) ] ' U e 5 : s I / ' 3 z.b.b.b.b.b.b.b.b.",
"b.b.x.b.b.b.b.4.q ' { Y a g 3 t.J.G.l.g.d.x W wXnXlXtXtXpXtXtXtX9XoX0XtXiXiXtXsXvX:XE ] ] ] ' I e % w E ] ! < z.b.b.b.b.b.b.l.b.",
"n.m.b.n.x.n.z.6 E ] [ / g r N J.F.b.g.g.g.k Q :XvXvXiXtXiXtXiXiXrX6X9XtXtXiXiXzXkX_.d ] [ [ ] ] t & s L | } % e.b.b.b.b.b.b.b.b.",
"m.m.n.b.x.b.t.y { ] ' a s O 0.4.4.a.c.l.l.b R W.kXiXsXkXhXpXpXiXkX.X[.rXkXdXdX_.eXS t Y I } { ] d 4 g P | } @ 7.b.b.b.b.b.b.b.n.",
"n.n.m.m.n.k.6 !  .[ ' L R p 1 r = 4 b M t.2.Q R >XxXeX[.pXhXkXpX~.W.~.U.W.'.:Xh &.c I ( U [ ] ] z * s I ..| + 8.b.b.b.b.b.n.n.n.",
"m.m.m.m.n.N y U R u T ' ..] I p a g s s 4 : 0 ] L R.W.* :X5X XW.^.pXyX2X].$.=.-.XX=.I ( u U  .{ d * p E  ._ , k.z.z.b.b.n.n.n.n.",
"v.v.x.x.v.c.m * , 6 s } ] ] { I I a p p f y $ L } 1 *.-.+.-.U.XXpXpXpXuXpX9X3XrXhX=.Y / + - ] { I % p I  .I 6 c.z.z.b.b.n.n.n.n.",
"m.x.m.x.v.x.z.4.z.N.3 u ' ] ( [ ] / I a a P t @ T P !.9XOXOX3XaXpXrXpXtXtXiXiXiXkXo.I ] X X ` ^ ` @ x } ] L , l.b.b.b.b.n.m.v.m.",
"v.x.x.x.n.Z.z.B.D.H.z.4 y E L L U E { Y E ' P + q L &.kXrX3XtXtXuXtXyXiXdXwXiXpXhX@.U ] $ . < q d $ q { } y b z.b.b.n.n.n.x.m.x.",
"m.m.x.x.n.z.z.A.J.D.D.4.M , N 4 b n E ] ` 4 4 X e a o.0XhXhXiXiXtXiXiXlXlXwXiXiXkX!.d ' 3 6.t.X v 0 $ ] } 0 7.b.b.n.n.n.n.v.n.m.",
"v.m.n.n.z.x.A.D.D.H.H.D.H.e.A.z.F.l.4 - % Q.-Xe s d s =XkXtXiXpXtXiXwXcXNXlXiXiXkX-Xu ' v S.C.6.Z.6 e ' Q 5 l.n.b.n.n.n.n.n.x.v.",
"v.x.n.x.z.Z.G.D.H.D.D.D.V.H.G.D.D.Z.v H :XkXjXx w s 1 *.kXiXiXiXiXpXiXlXlXiXiXiXzX_.d ` 3.D.S.S.j.> 3 3 5 z.z.z.b.n.n.m.m.n.v.x.",
"v.m.n.b.z.Z.D.H.V.V.K.D.D.A.D.H.D.Z.u.4XkX0XfXP.1 s d l 2XsXtXpXiXiXpXuXtXiXwXiXlX@.I ` a.D.F.S.Z.g.h.g.Z.b.z.b.b.n.n.v.x.x.x.v.",
"m.n.n.x.z.A.H.G.D.H.H.H.V.V.A.H.k.I.U.eXdX1XoX&.$ a g p @.iXtXiXiXtXiXiXuXiXiXkX:Xx { i N.D.S.D.D.A.N.Z.F.Z.z.z.b.n.n.x.x.x.v.m.",
"m.x.x.x.Z.H.D.D.V.H.K.H.D.D.V.H.I.,XU..XsX0X9XO.O p s s 0 !.lXsXtXpXiXkX%._.xX<Xo.^ E 3 S.V.F.F.A.A.A.A.G.A.n.z.b.n.n.x.n.n.v.n.",
"G.v.n.A.G.D.F.A.V.H.H.H.K.H.V.V.k.3X2XyXyXOX;XI.q.$ z s s y &.eXjXkXkXzX<X>X/.e I X.- v C.D.S.D.A.D.F.F.F.A.x.z.b.n.x.n.x.G.G.x.",
"x.A.G.A.H.A.F.D.H.D.V.H.K.H.H.H.V.I.pXpXOXOXP.c.h.3 * y p g w x &.&.&.+.=.c u ' X.t * 7.F.D.D.D.F.D.D.A.F.F.A.z.b.b.x.x.A.G.G.x.",
"A.G.D.D.D.D.D.D.D.D.V.H.H.K.H.H.D.c.T.T.T.T.x.B.z.t.+ 0 1 i d p 2 1 w d Y / | [ u t e e.D.C.D.F.A.D.D.D.F.F.Z.z.z.n.x.B.G.G.G.x.",
"F.D.H.H.F.D.D.D.D.C.D.D.H.K.K.H.H.C.D.D.K.H.B.N.A.n.v j $ , 0 t p d E ] ..( ] T $ ] r z.V.H.D.D.D.D.D.D.D.D.A.A.z.x.Z.G.G.G.G.B.",
"A.F.D.D.F.S.S.D.D.D.H.H.H.H.H.H.H.D.D.D.D.D.C.A.A.G.M ~ [ T r * $ $ % * 6 0 q t Y ] b S.D.H.D.D.D.D.D.S.A.D.F.A.A.Z.B.G.G.G.B.B.",
"F.A.D.S.F.S.S.D.D.D.G.H.H.H.H.H.H.H.V.D.H.H.H.V.H.D.q.~ u ' | T 2 0 # 7.A.5.- ' ] | i V.F.S.S.D.S.D.D.D.A.A.Z.A.F.V.A.H.H.A.A.A.",
"D.D.V.D.S.V.D.C.D.D.V.D.D.H.H.K.H.H.V.G.D.D.D.H.V.D.e.l ..' ! U d a $ B.C.D.5 L | { i c.D.D.H.V.F.S.F.D.S.S.D.S.D.D.D.D.D.D.Z.F.",
"D.D.D.D.D.D.D.D.D.D.D.D.V.D.H.K.H.G.V.V.D.D.H.D.D.C.C.5.! ] ] ] U a 3 B.D.D.9.y ' | } 5.F.D.S.F.D.D.D.D.V.D.D.F.D.F.F.D.D.D.D.D.",
"D.D.V.D.D.D.D.D.D.F.S.D.V.V.H.H.H.V.B.V.D.D.D.D.V.D.C.A.n ! ] ( I p M V.l.v ; 0 ( ] | n V.S.V.D.S.D.D.D.D.D.D.D.D.D.D.D.D.D.F.S.",
"D.D.D.D.D.D.D.D.D.D.D.V.H.H.H.K.H.H.H.D.H.H.D.C.D.Z.F.A.c.C ] ] ' L b 2.4 u u p ' ] { C C.D.D.D.F.D.F.S.D.S.F.D.S.D.D.D.D.C.D.D.",
"D.D.D.V.D.D.D.D.D.D.D.D.D.D.H.H.H.D.H.H.K.H.D.D.D.A.A.A.F.c.V ] ' U % 4 P / ' ' ' ] { f z.S.V.D.D.D.D.D.S.D.D.S.V.D.D.V.D.D.D.D.",
"D.D.D.C.D.D.D.D.B.D.D.D.V.D.H.V.H.D.A.H.D.K.D.D.D.D.Z.A.D.A.9.| / I - t / | { / ^ { / M V.H.F.D.D.S.D.D.F.D.D.D.D.D.D.D.D.C.D.D.",
"D.D.D.D.V.D.D.D.A.A.V.H.D.D.D.V.D.D.S.V.D.D.D.D.V.A.A.H.F.D.m ! ] ] y T ..| ..Y - l 6 x.C.D.V.C.D.V.D.D.S.D.D.D.S.V.S.D.D.V.V.D.",
"D.F.D.D.D.D.D.D.A.D.D.D.V.V.D.H.D.S.D.D.D.K.F.D.D.A.D.D.Z.u.7 I ] ] U L  .! T k M a.c.V.F.D.D.H.D.D.D.D.D.D.D.V.D.D.V.D.D.D.D.D.",
"D.D.D.D.D.H.D.V.D.H.D.H.V.D.V.H.N.D.A.D.D.D.K.D.D.C.D.V.u.vX#.L Y ' j & n 7.9.z.D.D.D.D.S.D.D.D.V.D.D.V.D.D.V.D.D.D.D.D.D.D.D.D.",
"D.D.D.D.A.D.D.D.H.D.H.H.D.D.D.S.A.D.D.D.D.D.D.V.C.D.D.D.u.).k h S c #.3 l.D.C.H.S.F.D.D.D.D.D.V.D.D.D.D.V.D.D.D.S.F.S.F.D.D.D.D.",
"D.F.D.B.A.A.A.D.V.D.H.H.D.D.D.C.Z.D.D.F.K.K.F.D.D.D.D.D.D.m *.H H D ^.R.).x.D.C.D.D.D.D.V.K.C.D.D.D.D.D.D.D.D.D.D.D.V.D.D.Z.S.D.",
"A.F.D.A.B.D.D.A.B.D.D.K.K.H.D.D.Z.D.D.D.D.D.D.D.D.D.V.F.c.E.=X4X>X4X X'.[.p.D.D.D.D.D.D.D.D.D.S.V.D.D.V.D.D.D.V.D.D.D.D.D.D.S.S.",
"A.A.B.D.A.A.A.A.D.D.D.K.K.H.D.C.F.Z.D.D.D.D.D.D.D.D.D.D.4.).|.*._./.(.R.Q.:.e.D.D.F.S.V.V.D.D.C.D.D.V.D.D.V.D.D.D.F.D.D.C.Z.S.S.",
"B.D.Z.D.S.D.D.A.D.D.H.K.H.D.D.A.Z.D.D.F.D.D.D.D.D.D.D.S.z.J u.9.i.4.J 3.s.F s.V.S.D.D.D.K.D.D.D.D.D.D.D.D.D.D.D.D.D.D.A.Z.D.S.A.",
"A.A.D.S.Z.D.S.A.D.A.D.H.H.D.D.D.A.Z.A.D.D.D.D.D.D.D.D.D.A.A.S.D.S.S.D.D.D.S.D.D.S.D.D.D.S.D.D.D.K.V.D.V.V.D.D.V.D.D.A.A.A.Z.A.A.",
"Z.Z.D.A.S.Z.D.D.S.A.D.D.D.C.A.A.A.Z.D.S.S.D.D.D.D.F.D.N.D.A.S.A.F.S.D.S.A.A.A.D.S.D.D.D.D.V.D.S.C.D.D.D.D.D.D.D.D.D.F.D.D.A.D.Z."
};
