/* XPM */
static char *ef7c7276c3144b51a43bd3cd1b3cc5ee4DalbYnRZ3KbfyLD[] = {
/* columns rows colors chars-per-pixel */
"64 64 240 2 ",
"   c #044600",
".  c #0E4701",
"X  c #054E01",
"o  c #0D4C01",
"O  c #134601",
"+  c #194601",
"@  c #124B01",
"#  c #1B4B01",
"$  c #154509",
"%  c #035401",
"&  c #0B5301",
"*  c #035B01",
"=  c #0B5B02",
"-  c #045508",
";  c #125201",
":  c #1B5401",
">  c #125B02",
",  c #1D5B02",
"<  c #1C5C09",
"1  c #1C5609",
"2  c #244B01",
"3  c #2A4B01",
"4  c #234701",
"5  c #3B4601",
"6  c #344C02",
"7  c #3B4C01",
"8  c #344501",
"9  c #235503",
"0  c #2D5302",
"q  c #235A01",
"w  c #2D5C01",
"e  c #345401",
"r  c #3C5403",
"t  c #365902",
"y  c #395B03",
"u  c #365809",
"i  c #036401",
"p  c #0A6302",
"a  c #026B01",
"s  c #0B6B02",
"d  c #0A6A09",
"f  c #146403",
"g  c #1A6503",
"h  c #136C03",
"j  c #1A6C09",
"k  c #1B6A08",
"l  c #027201",
"z  c #0B7302",
"x  c #037B01",
"c  c #0B7C03",
"v  c #0C740A",
"b  c #0C790A",
"n  c #077009",
"m  c #137304",
"M  c #1C7203",
"N  c #147B04",
"B  c #1A7E05",
"V  c #12730B",
"C  c #1B7209",
"Z  c #157B09",
"A  c #1C7C0C",
"S  c #1C7B12",
"D  c #2B6004",
"F  c #236B05",
"G  c #22720C",
"H  c #237B0C",
"J  c #247614",
"K  c #3D7F1E",
"L  c #36740C",
"P  c #4D4700",
"I  c #434C02",
"U  c #4A4C01",
"Y  c #474701",
"T  c #574E02",
"R  c #5C4D05",
"E  c #445402",
"W  c #4C5203",
"Q  c #4B5706",
"!  c #525403",
"~  c #5C5303",
"^  c #545A04",
"/  c #5C5709",
"(  c #634E03",
")  c #6B4C03",
"_  c #734D06",
"`  c #764F09",
"'  c #7F4F05",
"]  c #635304",
"[  c #6C5305",
"{  c #69560A",
"}  c #745304",
"|  c #7A5205",
" . c #75530A",
".. c #7A540A",
"X. c #7E5908",
"o. c #496604",
"O. c #4A7200",
"+. c #5A7E02",
"@. c #586900",
"#. c #616507",
"$. c #864D04",
"%. c #894F06",
"&. c #844F09",
"*. c #8A4E0A",
"=. c #934F0A",
"-. c #984F09",
";. c #845405",
":. c #8C5205",
">. c #835409",
",. c #8C5309",
"<. c #83590D",
"1. c #91530A",
"2. c #905505",
"3. c #8D4F12",
"4. c #8D5511",
"5. c #805010",
"6. c #048301",
"7. c #0C8402",
"8. c #0D8B04",
"9. c #0D820B",
"0. c #0D8A0B",
"q. c #008804",
"w. c #138404",
"e. c #1B8406",
"r. c #148C04",
"t. c #1B8C05",
"y. c #13850D",
"u. c #1C840B",
"i. c #148B0C",
"p. c #1B8B0B",
"a. c #0D9303",
"s. c #0C9D00",
"d. c #159304",
"f. c #1B9404",
"g. c #159C03",
"h. c #1D9D04",
"j. c #159209",
"k. c #1C940A",
"l. c #129908",
"z. c #1D9B0A",
"x. c #0F8610",
"c. c #1C8514",
"v. c #1C8B13",
"b. c #198414",
"n. c #1D9413",
"m. c #1D9617",
"M. c #22840B",
"N. c #238C0C",
"B. c #288F0B",
"V. c #29860A",
"C. c #31890E",
"Z. c #229305",
"A. c #229D02",
"S. c #23930C",
"D. c #239D0C",
"F. c #2C9C0D",
"G. c #2A940C",
"H. c #2B8614",
"J. c #228D12",
"K. c #2E8B14",
"L. c #2C8C19",
"P. c #238717",
"I. c #388915",
"U. c #239411",
"Y. c #2D9312",
"T. c #249D12",
"R. c #2B9D13",
"E. c #229319",
"W. c #2D9219",
"Q. c #229A1B",
"!. c #2D9B1A",
"~. c #319C16",
"^. c #31931B",
"/. c #369815",
"(. c #309707",
"). c #0DA301",
"_. c #14A302",
"`. c #1BA304",
"'. c #1DAA04",
"]. c #1DA20A",
"[. c #1BAA09",
"{. c #15A806",
"}. c #1EB106",
"|. c #1BA315",
" X c #22A505",
".X c #22AA04",
"XX c #2BAB05",
"oX c #23A40B",
"OX c #2AA40D",
"+X c #25AB0B",
"@X c #2BAB0B",
"#X c #34A90C",
"$X c #25B305",
"%X c #2AB405",
"&X c #2CBD06",
"*X c #26B10A",
"=X c #2BB30D",
"-X c #28B908",
";X c #35B60A",
":X c #25A413",
">X c #2BA414",
",X c #26AD12",
"<X c #2BAB13",
"1X c #2AA51A",
"2X c #2BAA19",
"3X c #31A415",
"4X c #33AD15",
"5X c #3AAC15",
"6X c #33A51B",
"7X c #34AB1A",
"8X c #3BA81A",
"9X c #2CB214",
"0X c #2DBC13",
"qX c #28B519",
"wX c #34B313",
"eX c #39B515",
"rX c #34BC13",
"tX c #3ABF15",
"yX c #33B31B",
"uX c #3CBB1A",
"iX c #38B91B",
"pX c #349A25",
"aX c #2DA027",
"sX c #3CA423",
"dX c #33AA24",
"fX c #3AB624",
"gX c #578509",
"hX c #40B41C",
"jX c #42BA1B",
"kX c #488828",
"lX c #42AA26",
"zX c #46B727",
"xX c #25C007",
"cX c #36C609",
"vX c #3EC214",
"bX c #3DC31C",
"nX c #35C314",
"mX c #42C30E",
"MX c #41C419",
"NX c #43C522",
/* pixels */
"p s p i i i 7.R.;X#Xw.= @ @ @ o O O @ @ @ o @ & % s ^.^.s % = % * * i m J.T.z.`.+X_.8.7.z a i s i p p p z r.A m a s p i i s i i ",
"i i i i a w.:X>X X.XD.l & @ @ @ @ @ @ @ @ o o % a R.zXM.* * % * % * i i.D.D.{.].h.7.x i s i i i s p s c k.OX>Xr.x s s i s i s i ",
"i i i l p.6X7X_.).=X<Xc * o @ # O O o $ @ o X = M.iX3Xc * % = - * i b R.z._.:Xz.7.a i p p i i i i p a w.].+X*Xh.x i s s i s V a ",
"a i i Z 6X4X X X.X+X8.l = O # O O O @ . @ . % B 3X=X Xa % - & * * l D.@X_.[.:X0.l i i s i i p i i p a d.+X'..X].x i i i a l P.n ",
"i i i b :X<X.XXX>X6.i % o + + O + O o . O o m D.oX'.g.a = & = % i k.+X'..X+Xd.l a i s i p p i s a s z A..X_..X:Xx i i i a 9.b.a ",
"s a i a 6.+X;X3XN * % & @ O + + + O @ @ . > B.OX_.'.h.z & = % * z @X=X%XeXOXx a i i p i p = i i i i N XX[._.'.:X7.i i z w.k.b i ",
"i i a i l h.5Xe.* % & o o + O O + . O O O k F.A._.'.+XN = & * * t.bXvX;XOXr.l i i s i i i p i i i a r.%X}.[.@XD.n i z f.T.z.l i ",
"p i p i i t.B.i % p C <   O @ O O @ # @ ; H.3X_.s.'.@Xm * = % i p.wX Xw.x a i s i i s p p i i i s a f.rX&X.Xd.x a l k.:X2X:Xl i ",
"p p p = = m h % * M.sXJ %   O O . @ O   h G.].g._.*XD.i & = * i a l a i i i i p a p i i i x e.^.u.l D.tX.X7.a a l f.<X@XuX:Xl i ",
"= = & & % = = * B <X7XR.p @ @ @ o O O o A D._.`.'.].7.* & = * * * i * i p i i a i a l x k.7XzX~.z l D.D.x a i a d.yX@X@XNX,Xa * ",
"; o o & ; o % z F.`.{.>Xh X @ . . + O & J.+X.X+Xl.x i * = = * = - * p i p p i i a l j.+XiXuX#Xl i z e.x i s i z |.qXh.#XvX@Xa & ",
"o @ o o ; o = p. X_._.<XB X . o . O O * D.tX4Xr.l i = * * = = * * = i * i i a p a d.'.}.%X`.x i s i a i i a h H L O.@.gX;X*Xi o ",
"o o @ o o o m >X'.)._.7XH.o @ O @ @ o = 3XeXt.i * % = * = * * * = d i i i i i a i.+X'.'.h.6.a a a p i i f D o.#.[ | X.+.;X%Xf o ",
"@ o o ; o & M.>X_.{.{.4XM.& ; ; ; ; - h 3Xp.i * = * = = = * * * * * p i a i i x z.'.].h.8.a s p s i f w ^ [ <.;.;.} o.Z.%XXXp o ",
"@ o @ o o = N. X_._..X:Xz ; ; & ; & * m J.l * * p * i * * p p p i i i i a a i w.+X{.`.w.z s s p p q E [ ;.2.;.[ ] E F d.-XA.% @ ",
"o ; @ @ o = f. X{..X.X6.* - & = = = * s s i p i i i i p i i p i p = * l c s i f.*X.Xr.l z m s > w ! | -.-.| ~ t , i c g.$X7.% @ ",
"@ ; o @ o = k..X,X.X7.i * * * p = s s p p i i p = i p p p i i * * i c :Xn.a a h.;X Xc a h V f w ~ | =.*.) E q p i i e.oX_.i & @ ",
"o @ ; @ o = k.yX+X6.i * * * d V i i i s * i i i i i i p p i p i a j.fXfXi.i x ,XnXf.a i s k y ] | 2.$.) E , p = s i e.OX7.% & @ ",
"@ @ & o o i 6XiXa.i * % * * c.v.i i i i p i i i i i i i i p a x k.,XnXuXw.* 7.bX<Xl s i f e ] ,.=.$.( e f i i i i s u.p.i X @ ; ",
": @ ; o & p Y.6Xz * * * % l 7X3Xl i i i i i i = i i i i i a r.].+X_.%XOXa * p.<X6.i p p w ~ *.=.&.T 0 i a s p i p p A Z % @ ; @ ",
"@ @ ; o & & s N s = * * i t.jXwXl i i i i i i i i i i i l r. X'._._.OXr.* p v.e.i f f w ^ X.=.;.T e = i p i d p p i h m * o ; @ ",
"; ; @ & o - % * = = % * z :XrX=X6.i i i i a i i i i a l r.oX`._._.+X Xm * s m s = q y ^ } :.%.( e = i i p d p p p * p j F & ; # ",
"# ; @ & & & % * * = * i i.+X'.$Xf.a i i i i i i i i i r.@X.X).).'.oXr.i * f p > q e ~ } :.$.[ 7 : p i p i i s i = = = k I.f o # ",
"# ; @ & & & & = = * * z k.[._. XOXZ s s i i i i i * a z.%X_.).{.'.d.a % > > = , t ^ } 2.%.) I : & p p p i p p = p p = > I.K.- @ ",
"; ; @ & & % * * = - p 9.>XoX_.'.oXN i s a i i i i * a  X-X).'.+Xd.l = = f > : 0 ! } ,.,.) Y 2 ; & & & = i * i i p d p * H.sXh @ ",
"o ; @ & & % = * i i i b T.'._. Xr.l a i p a i i i i l @X-X}.*Xd.l = > = > , 0 W  .;.1.} I 4 # ; @ @ @ & X % a p.aXaXv.s Z iXY.> ",
"& & & @ & & * i i i i x :X'._.`.6.a p i p i i i i i l <XrXg.7.i * > f = ; 0 ! | *.$.` U 4 O : # O # @   & v k.@X>X@XOXk.t.rXhXF ",
"% & ; : & % i i i a i a d..X'.`.x i a i i i i i i i b.yXD.a * & > ; ; : e ] | =.%._ Y + @ @ # O $ $ o f H.R.`.g.g.a.d.f.d.*XMX(.",
"& & 9 9 ; - i i i a i i x ,X=X[.x i i i i i d * i s !.Q.l * = > - & : E [ ,.1.&.( 7 4 + @ @ + @ o   M ~.4X'._.].].h.r.z x .XcXwX",
"o 9 u 0 = i i i i a a a a d.iX2Xx i i a i i i i i v b.a * * * * : e ! ..1.,.&.) 5 + o + O @ O . X M 5XMX=X[.].f.7.m p & m .XrXeX",
"; r Q 3 = i i i i i a a a 6.7XyXx i i i i i i i i i i % * = , u !  .*.3.5.) P 8 # O O O O O O   h 5XmX;XA.r.s p * o o 1 C.}.&XwX",
"E / Q 1 * i i i a a a a a a v.aXx i i a a a d i * = & 9 0 u {  .5.>.` R I 3 + o O : O @ @ O . & V.5XZ.m * o o X @ @ O , B.9X-XqX",
"{ { 0 * i i i i a i a a a a a x.n i a i i = p f g w t Q / ]  ._ _ R U 6 # @ @ o @ # @ @ O $ o ; j d &   O + # O # + @ & s h.0XqX",
" .E = * i a a i d a a a a a a a i i p = , e Q R (  . .} [ T Y 5 3 + @ @ @ o @ @ @ @ # o o o @ @ o $ O # O O O O O O @ o % a i.Y.",
"/ 9 * i i d i a a n a a s p i i i i i i p , w u E I I 6 3 : & & X % X o X o & @ @ @ O O + o . $ O . O O O @ + O O O # # @ & g o.",
"u = i i a a c p.x.n a a a n a a i a i i a i i i * * * * % * % % % X X X X & o o @ @ # O o O O . . o @ @ O O O O O O $ @ ; 9 W } ",
", i z p.z.1X2X1Xy.l a a l a a a a a a a i a a i i * * * * % % % % X X & & X o & & o O @ $ o   O . o . . . . O O + O @ + 3 ! ..<.",
"a y.|.+X=XiX<Xq.l a a a a a a a a a a a a a i i i * * * % - = % X % X o o o X o o o o .     1 1 @ . @ . . @ . O O @ O 3 ! ..4.{ ",
"k.].[._..X+Xq.l a l a a a a a a a a a a n i a i i * * - * * % % % X X & o o o X o @ @ ; k K kXL @ . . . O O . O O o # E ..4.X.E ",
"].g._.'.].6.a l a a l a a a a l l a a a a a i i i i * * * % % % % X X X X o X * f A N.3XzXlXG @ o o @ . . @ O . . + 7 { 2.;.^ g ",
"].{.{.l.x a a a a a a a a l a l a l l a a a a i i i * % % % p j = & X & X X i u.>X2X=XMXwXx X o @ @ o . O . @ . o 4 ! 1.:.] w m ",
"oXl.8.l i a x x c c Z Z x l l a a l a l l a a a i i * i v W.W.V * X X X % s N.OX X_.XXD.l & .   . o O O @ O O O O 6 [ 1.} r f S.",
"8.l a a 7.8.z.<XiXzXfXR.y.l l l l l l a a l a a a l x.2XNXlXZ * % X % % p p.OXg.A.A.f.p & @ . o . . @ @ . o @ o # Q ..:.~ 9 m >X",
"l x i.k.oXz.+XrXwXF.t.6.l l l l l a a l l a a l 0.:XiXMXeXx * % % % % * t.<Xg.`.D.Z.i & $ O O ; @ o o @ O O @ o 3 ~ >.[ r > u.u.",
"n.D.oXz.z.[.oXh.q.l a a a l l l l a l a a l l 8.qXnXcX$Xq.* * * % % * u.<X+X`.D.Z.l h k > ; @ @   o o o @ ; @ @ 3 [ ..W 9 k h i ",
"oXoX_.h.'.D.j.x a l l a a l a a b x a l a l x |.0XxX&Xa.a * % - * % z 5XuX*X@XOXw.* s Y./.M.m V m f % % o @ &   6 { [ 6 ; > * % ",
"`.`.{.oXD.8.l a a l a a l a a l v.c a l l a x _.cX&X`.l * * * * - % y.5XoXd.Z.D.N * * r.eX4X2X7X7X6XJ.s % % X X 6 { R 2 & & & i ",
")._.+XoX8.l a l a l a l a l a x !.i.a l a a x .XcX*X6.a i * - * * * i l i * * a s * % a oX=X.X'.'.+X5X!.V * % X u / W # & o = e.",
"[.,X:X8.l a i l a l a l a l a w.lXT.l l l a x ,XtXa.a i i * * % % * - X % % % * * * % * i.=X.X_.s.)._.@X@Xw.* % u W 7 # ; & V F.",
"].l.x a a a a a a a l a l a l D.zX7Xc a l a l z.>Xl * i * % % * * * % - % X & % % = * * l l.=X.X{._._.'.wX2Xr.i w E 3 ; o = N.4X",
"x i i i a a i a a a l a l l x >XeX7Xi.l a a a 7.x.i * * % * % % % % % X   % % * * * * i i l i.`._.`._.'.*XbXyXw.g r 2 @ o f sX7X",
"i i * i a a a a l a a l a l 8.,X+X9XT.l a a i l n i % % % % % * i p j J J s * % * * i i i i a l x x x x 6.d.T.j.C e 2 o @ G L.m ",
"* * i i i a a a a a a l l 6.:X+X'.oX<X6.i i i i * - % s C u.t.S.!.sXpXL.C i * * i i i i i i a a a i a i a a a l h w 9 @ > g i % ",
"i i d a d a a a a a l a a 6.>X'.g.].<X7.i i * * * * a !.fXyX9XwXyXR.z * % * i i i i i i i a a i i a a a a i i a m F : @ & & % % ",
"i i a i a a a n l a l l a 8.@X.X).'.2X0.i * * * * a v.7X=X'. XA.7.i % % & * i i i s s a i i a a a a a a a a i a z j , ; & & % * ",
"i i i n n a i a a a a a a 6.oX X_. X2X9.i - * * a v.:X]._. XZ.m % & o & & % * * i s i i a i a a a a a a a a a a i h > > & & * * ",
"i a b b a a a a a a a a a l `.oX'.,Xr.a i i i c z.:X[._._.f.l % & & o @ & & % * * i i a a a a i a i i a a a a i a i i = = = = i ",
"n x.m.n a a i i i a i a i l d.=X@Xk.l i a a j.9X0X{.g.oXz.z * % & X & & p f J P.L.W.m.i.l a i a i a i i i i i s s i i p = = * p ",
"Q.aXx.i i i a i i s p i i a f.9Xf.l i a a m.2X<X]._.oXOXi.* % % & * m M.F.(.OXR.S.w.m a a a a i a a a n n v s a i p s i p p p a ",
"fXQ.l x n i p = p j h p i i y.k.l i a p l 9.7.l l x 7.c a * * i v k.D.+X.XXXOXB.s * * * = p a x.c.m.E.P.S S A V s p > > ; ; = p ",
"qXc i 7.c.f = p h M h p = = i a i p i p i i i i i = i * i a z b.m.D.h.h. XD.t.s % X % & = = = V S H G h f > f g f > > > ; & > p ",
"l.a a a Z f p p m A m p > & = > = > > = p p = = & & & - * i p.].].h._.oXD.M.* % & = % = & & & & = = & = = > > > > = ; > ; ; > V ",
"x i p i s = p p A B.z p > & ; @ & @ & @ @ ; ; & & o & & & = N f._.g.g.p.N = % = = = = p g k > = > = > > = > = = = = > & = ; = p ",
"s p = = = p i a N.Y.a = ; @ @ @ @ @ @ o @ @ o o & & o & & = > z N b m p * * p p V Z c.L.H.G f p = = = p p = = = = = = = = = = = "
};
